<svg width="64" height="63" viewBox="0 0 64 63" fill="none" xmlns="http://www.w3.org/2000/svg">
<path d="M48.6381 39.3378V29.9003C48.6381 21.7948 48.6381 17.7421 46.1778 15.224C43.7175 12.706 39.7576 12.706 31.8381 12.706C23.9185 12.706 19.9587 12.706 17.4984 15.224C15.0381 17.7421 15.0381 21.7948 15.0381 29.9003V39.3378C15.0381 45.1904 15.0381 48.1167 16.4084 49.3953C17.0619 50.0052 17.8869 50.3883 18.7657 50.49C20.6083 50.7036 22.76 48.7765 27.0635 44.9226C28.9657 43.2191 29.9169 42.3673 31.0173 42.143C31.5592 42.0324 32.117 42.0324 32.6589 42.143C33.7593 42.3673 34.7105 43.2191 36.6126 44.9226C40.9162 48.7765 43.0679 50.7036 44.9105 50.49C45.7894 50.3883 46.6142 50.0052 47.2678 49.3953C48.6381 48.1167 48.6381 45.1904 48.6381 39.3378Z" fill="#FFE9A6" stroke="black" stroke-width="2"/>
</svg>
