<svg width="197" height="41" viewBox="0 0 197 41" fill="none" xmlns="http://www.w3.org/2000/svg">
<mask id="path-1-outside-1_151_131" maskUnits="userSpaceOnUse" x="0" y="0" width="197" height="41" fill="black">
<rect fill="white" width="197" height="41"/>
<path d="M1.76 32V5.6H8.2V32H1.76ZM2.92 32V26.6H18.96V32H2.92ZM21.8316 32V10.88H28.2716V32H21.8316ZM25.0716 7.92C23.8449 7.92 22.8982 7.66666 22.2316 7.16C21.5916 6.62667 21.2716 5.88 21.2716 4.92C21.2716 3.90667 21.5916 3.14667 22.2316 2.64C22.8982 2.10667 23.8449 1.84 25.0716 1.84C26.3249 1.84 27.2716 2.10667 27.9116 2.64C28.5782 3.14667 28.9116 3.89333 28.9116 4.88C28.9116 5.86667 28.5782 6.62667 27.9116 7.16C27.2716 7.66666 26.3249 7.92 25.0716 7.92ZM41.7969 39.4C39.4502 39.4 37.5169 39.2133 35.9969 38.84C34.5035 38.4933 33.4102 37.96 32.7169 37.24C32.0235 36.5467 31.6769 35.6933 31.6769 34.68C31.6769 33.4533 32.1569 32.4533 33.1169 31.68C34.1035 30.9067 35.5435 30.4667 37.4369 30.36V29.52C35.9702 29.52 34.8369 29.3733 34.0369 29.08C33.2635 28.7867 32.8769 28.24 32.8769 27.44C32.8769 26.6933 33.2635 26.0133 34.0369 25.4C34.8102 24.7867 36.0902 24.3067 37.8769 23.96V23.12C36.2502 22.9867 34.9569 22.4533 33.9969 21.52C33.0369 20.56 32.5569 19.3067 32.5569 17.76C32.5569 16.4533 32.9302 15.2667 33.6769 14.2C34.4235 13.1067 35.5435 12.24 37.0369 11.6C38.5302 10.9333 40.3969 10.6 42.6369 10.6H53.5969V15.44L46.9169 14.56V15.52C48.6502 15.76 49.8902 16.16 50.6369 16.72C51.3835 17.28 51.7569 18.0667 51.7569 19.08C51.7569 20.1467 51.3835 21.0933 50.6369 21.92C49.9169 22.7467 48.8902 23.4 47.5569 23.88C46.2235 24.3333 44.6369 24.56 42.7969 24.56C42.4769 24.56 42.1169 24.5467 41.7169 24.52C41.3435 24.4933 40.6369 24.4267 39.5969 24.32C39.1702 24.6933 38.8369 25.0133 38.5969 25.28C38.3569 25.52 38.2369 25.7467 38.2369 25.96C38.2369 26.12 38.3035 26.2533 38.4369 26.36C38.5702 26.4667 38.7569 26.5467 38.9969 26.6C39.2635 26.6267 39.5435 26.64 39.8369 26.64H46.2769C46.8102 26.64 47.5035 26.68 48.3569 26.76C49.2369 26.8133 50.1035 27.0133 50.9569 27.36C51.8369 27.7067 52.5702 28.2667 53.1569 29.04C53.7702 29.8133 54.0769 30.92 54.0769 32.36C54.0769 33.9333 53.6369 35.24 52.7569 36.28C51.8769 37.3467 50.5302 38.1333 48.7169 38.64C46.9035 39.1467 44.5969 39.4 41.7969 39.4ZM42.6369 34.28C44.1835 34.28 45.3835 34.2 46.2369 34.04C47.0902 33.88 47.6769 33.6267 47.9969 33.28C48.3435 32.9333 48.5169 32.5067 48.5169 32C48.5169 31.52 48.4235 31.1467 48.2369 30.88C48.0502 30.5867 47.8102 30.3867 47.5169 30.28C47.2235 30.1733 46.9169 30.1067 46.5969 30.08C46.3035 30.0533 46.0502 30.04 45.8369 30.04H40.6769C39.6902 30.04 38.9569 30.28 38.4769 30.76C38.0235 31.2133 37.7969 31.7467 37.7969 32.36C37.7969 32.8667 37.9569 33.2533 38.2769 33.52C38.5969 33.8133 39.1035 34.0133 39.7969 34.12C40.5169 34.2267 41.4635 34.28 42.6369 34.28ZM42.3569 21.36C43.5035 21.36 44.3569 21.0533 44.9169 20.44C45.5035 19.8267 45.7969 19.0533 45.7969 18.12C45.7969 17.1067 45.5035 16.28 44.9169 15.64C44.3302 14.9733 43.4902 14.64 42.3969 14.64C41.3035 14.64 40.4502 14.9733 39.8369 15.64C39.2235 16.28 38.9169 17.1067 38.9169 18.12C38.9169 18.7333 39.0502 19.2933 39.3169 19.8C39.5835 20.28 39.9702 20.6667 40.4769 20.96C40.9835 21.2267 41.6102 21.36 42.3569 21.36ZM57.5738 32V18.56V3.2H64.0138V9.8C64.0138 10.3333 63.9871 10.8933 63.9338 11.48C63.9071 12.04 63.8404 12.6267 63.7338 13.24C63.6538 13.8267 63.5604 14.4267 63.4538 15.04C63.3738 15.6533 63.2671 16.2533 63.1338 16.84H64.0938C64.4671 15.5333 64.9338 14.4 65.4938 13.44C66.0538 12.4533 66.7871 11.6933 67.6938 11.16C68.6004 10.6 69.7604 10.32 71.1738 10.32C73.6804 10.32 75.5471 11.2 76.7738 12.96C78.0271 14.6933 78.6538 17.3733 78.6538 21V32H72.1738V22.08C72.1738 19.92 71.8538 18.3067 71.2138 17.24C70.6004 16.1467 69.6538 15.6 68.3738 15.6C67.3871 15.6 66.5738 15.9067 65.9338 16.52C65.2938 17.1333 64.8138 17.96 64.4938 19C64.1738 20.0133 64.0138 21.1467 64.0138 22.4V32H57.5738ZM91.4388 32.52C88.9588 32.52 87.1321 31.8667 85.9588 30.56C84.7854 29.2267 84.1988 27.1067 84.1988 24.2V15.92H81.1988L81.3188 10.92H83.4788C84.3321 10.8933 84.9721 10.76 85.3988 10.52C85.8521 10.28 86.1321 9.82667 86.2388 9.16L86.7588 6.2H90.3988V10.88H95.4788V16.12H90.3988V23.92C90.3988 24.8267 90.6121 25.4933 91.0388 25.92C91.4921 26.3467 92.1721 26.56 93.0788 26.56C93.5854 26.56 94.0654 26.5067 94.5188 26.4C94.9721 26.2933 95.3454 26.1467 95.6388 25.96V31.92C94.7854 32.1867 93.9988 32.3467 93.2788 32.4C92.5854 32.48 91.9721 32.52 91.4388 32.52Z"/>
<path d="M99.7288 32V5.6H110.969C112.435 5.6 113.769 5.72 114.969 5.96C116.169 6.17333 117.222 6.50667 118.129 6.96C119.062 7.38667 119.849 7.92 120.489 8.56C121.129 9.17333 121.609 9.89333 121.929 10.72C122.249 11.52 122.409 12.4133 122.409 13.4C122.409 14.3333 122.262 15.1733 121.969 15.92C121.675 16.6667 121.222 17.32 120.609 17.88C120.022 18.44 119.275 18.8933 118.369 19.24C117.462 19.5867 116.409 19.84 115.209 20V20.6C116.729 20.76 117.902 21.1067 118.729 21.64C119.582 22.1467 120.235 22.8267 120.689 23.68C121.142 24.5333 121.542 25.56 121.889 26.76L123.409 32H116.249L115.089 27.16C114.849 26.0933 114.515 25.2667 114.089 24.68C113.689 24.0933 113.169 23.6933 112.529 23.48C111.889 23.24 111.089 23.12 110.129 23.12H106.169V32H99.7288ZM106.169 18.36H110.529C112.155 18.36 113.422 18.04 114.329 17.4C115.235 16.76 115.689 15.76 115.689 14.4C115.689 13.0667 115.275 12.08 114.449 11.44C113.622 10.8 112.369 10.48 110.689 10.48H106.169V18.36ZM136.989 32.56C135.229 32.56 133.655 32.3333 132.269 31.88C130.882 31.4 129.695 30.7067 128.709 29.8C127.749 28.8933 127.015 27.7733 126.509 26.44C126.002 25.1067 125.749 23.5733 125.749 21.84C125.749 20.16 125.989 18.6133 126.469 17.2C126.975 15.7867 127.682 14.5733 128.589 13.56C129.522 12.52 130.655 11.72 131.989 11.16C133.349 10.6 134.869 10.32 136.549 10.32C138.255 10.32 139.749 10.6 141.029 11.16C142.335 11.6933 143.402 12.4933 144.229 13.56C145.082 14.6267 145.709 15.9333 146.109 17.48C146.509 19 146.642 20.7467 146.509 22.72L129.989 22.84V19.48L142.829 19.36L140.549 20.92C140.735 19.5867 140.655 18.5067 140.309 17.68C139.962 16.8267 139.455 16.2133 138.789 15.84C138.122 15.44 137.402 15.24 136.629 15.24C135.695 15.24 134.869 15.4933 134.149 16C133.455 16.5067 132.909 17.24 132.509 18.2C132.109 19.16 131.909 20.3333 131.909 21.72C131.909 23.9067 132.375 25.4933 133.309 26.48C134.269 27.4667 135.482 27.96 136.949 27.96C137.669 27.96 138.269 27.8667 138.749 27.68C139.229 27.4667 139.615 27.2133 139.909 26.92C140.229 26.6 140.469 26.2533 140.629 25.88C140.815 25.5067 140.962 25.1467 141.069 24.8L146.669 26C146.455 26.9867 146.109 27.88 145.629 28.68C145.175 29.48 144.549 30.1733 143.749 30.76C142.975 31.3467 142.029 31.7867 140.909 32.08C139.815 32.4 138.509 32.56 136.989 32.56ZM155.385 32.56C154.212 32.56 153.172 32.3333 152.265 31.88C151.359 31.4 150.652 30.72 150.145 29.84C149.639 28.9333 149.385 27.84 149.385 26.56C149.385 25.36 149.612 24.3733 150.065 23.6C150.545 22.8 151.225 22.1733 152.105 21.72C153.012 21.24 154.092 20.8533 155.345 20.56C156.599 20.24 158.025 19.96 159.625 19.72C160.399 19.5867 161.039 19.4667 161.545 19.36C162.079 19.2267 162.479 19.0267 162.745 18.76C163.012 18.4933 163.145 18.1067 163.145 17.6C163.145 16.9333 162.905 16.36 162.425 15.88C161.945 15.4 161.172 15.16 160.105 15.16C159.359 15.16 158.679 15.2933 158.065 15.56C157.479 15.8267 156.972 16.2133 156.545 16.72C156.119 17.2267 155.799 17.84 155.585 18.56L149.905 16.88C150.252 15.76 150.732 14.7867 151.345 13.96C151.985 13.1333 152.745 12.4533 153.625 11.92C154.505 11.36 155.505 10.96 156.625 10.72C157.772 10.4533 158.985 10.32 160.265 10.32C162.399 10.32 164.132 10.6667 165.465 11.36C166.825 12.0267 167.825 13.08 168.465 14.52C169.132 15.9333 169.465 17.76 169.465 20V23.24C169.465 24.2 169.479 25.1733 169.505 26.16C169.559 27.12 169.612 28.0933 169.665 29.08C169.745 30.04 169.839 31.0133 169.945 32H164.265C164.159 31.3867 164.052 30.6533 163.945 29.8C163.839 28.92 163.759 28.0267 163.705 27.12H162.945C162.572 28.1333 162.025 29.0667 161.305 29.92C160.612 30.7467 159.759 31.4 158.745 31.88C157.759 32.3333 156.639 32.56 155.385 32.56ZM158.305 28C158.785 28 159.265 27.92 159.745 27.76C160.252 27.5733 160.732 27.3333 161.185 27.04C161.639 26.72 162.052 26.3333 162.425 25.88C162.799 25.4267 163.079 24.9333 163.265 24.4L163.185 21.24L164.065 21.44C163.559 21.76 162.999 22.0133 162.385 22.2C161.772 22.3867 161.145 22.5333 160.505 22.64C159.892 22.7467 159.279 22.8667 158.665 23C158.079 23.1067 157.545 23.2533 157.065 23.44C156.612 23.6267 156.252 23.88 155.985 24.2C155.719 24.52 155.585 24.96 155.585 25.52C155.585 26.2667 155.839 26.8667 156.345 27.32C156.852 27.7733 157.505 28 158.305 28ZM182.013 32.56C180.253 32.56 178.706 32.12 177.373 31.24C176.066 30.3333 175.039 29.0533 174.293 27.4C173.546 25.72 173.173 23.72 173.173 21.4C173.173 19.2667 173.493 17.3733 174.133 15.72C174.773 14.0667 175.719 12.7733 176.973 11.84C178.253 10.88 179.826 10.4 181.693 10.4C183.026 10.4 184.146 10.64 185.053 11.12C185.986 11.6 186.759 12.32 187.373 13.28C187.986 14.24 188.479 15.4533 188.853 16.92H189.853C189.666 16.0133 189.493 15.16 189.333 14.36C189.173 13.5333 189.039 12.7733 188.933 12.08C188.853 11.36 188.813 10.7333 188.813 10.2V3.2H195.293V21.68V32H190.013L189.933 25.76H189.053C188.759 27.36 188.293 28.6667 187.653 29.68C187.039 30.6667 186.253 31.4 185.293 31.88C184.359 32.3333 183.266 32.56 182.013 32.56ZM184.333 27.36C185.159 27.36 185.853 27.1867 186.413 26.84C186.999 26.4667 187.466 26 187.813 25.44C188.159 24.88 188.413 24.28 188.573 23.64C188.733 23 188.813 22.4 188.813 21.84V21C188.813 20.4933 188.746 19.9867 188.613 19.48C188.479 18.9733 188.279 18.48 188.013 18C187.773 17.52 187.466 17.0933 187.093 16.72C186.719 16.3467 186.279 16.0533 185.773 15.84C185.293 15.6267 184.759 15.52 184.173 15.52C183.293 15.52 182.533 15.76 181.893 16.24C181.279 16.72 180.799 17.4 180.453 18.28C180.133 19.16 179.973 20.2 179.973 21.4C179.973 22.6 180.146 23.6533 180.493 24.56C180.839 25.44 181.346 26.1333 182.013 26.64C182.679 27.12 183.453 27.36 184.333 27.36Z"/>
</mask>
<path d="M1.76 32V5.6H8.2V32H1.76ZM2.92 32V26.6H18.96V32H2.92ZM21.8316 32V10.88H28.2716V32H21.8316ZM25.0716 7.92C23.8449 7.92 22.8982 7.66666 22.2316 7.16C21.5916 6.62667 21.2716 5.88 21.2716 4.92C21.2716 3.90667 21.5916 3.14667 22.2316 2.64C22.8982 2.10667 23.8449 1.84 25.0716 1.84C26.3249 1.84 27.2716 2.10667 27.9116 2.64C28.5782 3.14667 28.9116 3.89333 28.9116 4.88C28.9116 5.86667 28.5782 6.62667 27.9116 7.16C27.2716 7.66666 26.3249 7.92 25.0716 7.92ZM41.7969 39.4C39.4502 39.4 37.5169 39.2133 35.9969 38.84C34.5035 38.4933 33.4102 37.96 32.7169 37.24C32.0235 36.5467 31.6769 35.6933 31.6769 34.68C31.6769 33.4533 32.1569 32.4533 33.1169 31.68C34.1035 30.9067 35.5435 30.4667 37.4369 30.36V29.52C35.9702 29.52 34.8369 29.3733 34.0369 29.08C33.2635 28.7867 32.8769 28.24 32.8769 27.44C32.8769 26.6933 33.2635 26.0133 34.0369 25.4C34.8102 24.7867 36.0902 24.3067 37.8769 23.96V23.12C36.2502 22.9867 34.9569 22.4533 33.9969 21.52C33.0369 20.56 32.5569 19.3067 32.5569 17.76C32.5569 16.4533 32.9302 15.2667 33.6769 14.2C34.4235 13.1067 35.5435 12.24 37.0369 11.6C38.5302 10.9333 40.3969 10.6 42.6369 10.6H53.5969V15.44L46.9169 14.56V15.52C48.6502 15.76 49.8902 16.16 50.6369 16.72C51.3835 17.28 51.7569 18.0667 51.7569 19.08C51.7569 20.1467 51.3835 21.0933 50.6369 21.92C49.9169 22.7467 48.8902 23.4 47.5569 23.88C46.2235 24.3333 44.6369 24.56 42.7969 24.56C42.4769 24.56 42.1169 24.5467 41.7169 24.52C41.3435 24.4933 40.6369 24.4267 39.5969 24.32C39.1702 24.6933 38.8369 25.0133 38.5969 25.28C38.3569 25.52 38.2369 25.7467 38.2369 25.96C38.2369 26.12 38.3035 26.2533 38.4369 26.36C38.5702 26.4667 38.7569 26.5467 38.9969 26.6C39.2635 26.6267 39.5435 26.64 39.8369 26.64H46.2769C46.8102 26.64 47.5035 26.68 48.3569 26.76C49.2369 26.8133 50.1035 27.0133 50.9569 27.36C51.8369 27.7067 52.5702 28.2667 53.1569 29.04C53.7702 29.8133 54.0769 30.92 54.0769 32.36C54.0769 33.9333 53.6369 35.24 52.7569 36.28C51.8769 37.3467 50.5302 38.1333 48.7169 38.64C46.9035 39.1467 44.5969 39.4 41.7969 39.4ZM42.6369 34.28C44.1835 34.28 45.3835 34.2 46.2369 34.04C47.0902 33.88 47.6769 33.6267 47.9969 33.28C48.3435 32.9333 48.5169 32.5067 48.5169 32C48.5169 31.52 48.4235 31.1467 48.2369 30.88C48.0502 30.5867 47.8102 30.3867 47.5169 30.28C47.2235 30.1733 46.9169 30.1067 46.5969 30.08C46.3035 30.0533 46.0502 30.04 45.8369 30.04H40.6769C39.6902 30.04 38.9569 30.28 38.4769 30.76C38.0235 31.2133 37.7969 31.7467 37.7969 32.36C37.7969 32.8667 37.9569 33.2533 38.2769 33.52C38.5969 33.8133 39.1035 34.0133 39.7969 34.12C40.5169 34.2267 41.4635 34.28 42.6369 34.28ZM42.3569 21.36C43.5035 21.36 44.3569 21.0533 44.9169 20.44C45.5035 19.8267 45.7969 19.0533 45.7969 18.12C45.7969 17.1067 45.5035 16.28 44.9169 15.64C44.3302 14.9733 43.4902 14.64 42.3969 14.64C41.3035 14.64 40.4502 14.9733 39.8369 15.64C39.2235 16.28 38.9169 17.1067 38.9169 18.12C38.9169 18.7333 39.0502 19.2933 39.3169 19.8C39.5835 20.28 39.9702 20.6667 40.4769 20.96C40.9835 21.2267 41.6102 21.36 42.3569 21.36ZM57.5738 32V18.56V3.2H64.0138V9.8C64.0138 10.3333 63.9871 10.8933 63.9338 11.48C63.9071 12.04 63.8404 12.6267 63.7338 13.24C63.6538 13.8267 63.5604 14.4267 63.4538 15.04C63.3738 15.6533 63.2671 16.2533 63.1338 16.84H64.0938C64.4671 15.5333 64.9338 14.4 65.4938 13.44C66.0538 12.4533 66.7871 11.6933 67.6938 11.16C68.6004 10.6 69.7604 10.32 71.1738 10.32C73.6804 10.32 75.5471 11.2 76.7738 12.96C78.0271 14.6933 78.6538 17.3733 78.6538 21V32H72.1738V22.08C72.1738 19.92 71.8538 18.3067 71.2138 17.24C70.6004 16.1467 69.6538 15.6 68.3738 15.6C67.3871 15.6 66.5738 15.9067 65.9338 16.52C65.2938 17.1333 64.8138 17.96 64.4938 19C64.1738 20.0133 64.0138 21.1467 64.0138 22.4V32H57.5738ZM91.4388 32.52C88.9588 32.52 87.1321 31.8667 85.9588 30.56C84.7854 29.2267 84.1988 27.1067 84.1988 24.2V15.92H81.1988L81.3188 10.92H83.4788C84.3321 10.8933 84.9721 10.76 85.3988 10.52C85.8521 10.28 86.1321 9.82667 86.2388 9.16L86.7588 6.2H90.3988V10.88H95.4788V16.12H90.3988V23.92C90.3988 24.8267 90.6121 25.4933 91.0388 25.92C91.4921 26.3467 92.1721 26.56 93.0788 26.56C93.5854 26.56 94.0654 26.5067 94.5188 26.4C94.9721 26.2933 95.3454 26.1467 95.6388 25.96V31.92C94.7854 32.1867 93.9988 32.3467 93.2788 32.4C92.5854 32.48 91.9721 32.52 91.4388 32.52Z" fill="#BAA5FF"/>
<path d="M99.7288 32V5.6H110.969C112.435 5.6 113.769 5.72 114.969 5.96C116.169 6.17333 117.222 6.50667 118.129 6.96C119.062 7.38667 119.849 7.92 120.489 8.56C121.129 9.17333 121.609 9.89333 121.929 10.72C122.249 11.52 122.409 12.4133 122.409 13.4C122.409 14.3333 122.262 15.1733 121.969 15.92C121.675 16.6667 121.222 17.32 120.609 17.88C120.022 18.44 119.275 18.8933 118.369 19.24C117.462 19.5867 116.409 19.84 115.209 20V20.6C116.729 20.76 117.902 21.1067 118.729 21.64C119.582 22.1467 120.235 22.8267 120.689 23.68C121.142 24.5333 121.542 25.56 121.889 26.76L123.409 32H116.249L115.089 27.16C114.849 26.0933 114.515 25.2667 114.089 24.68C113.689 24.0933 113.169 23.6933 112.529 23.48C111.889 23.24 111.089 23.12 110.129 23.12H106.169V32H99.7288ZM106.169 18.36H110.529C112.155 18.36 113.422 18.04 114.329 17.4C115.235 16.76 115.689 15.76 115.689 14.4C115.689 13.0667 115.275 12.08 114.449 11.44C113.622 10.8 112.369 10.48 110.689 10.48H106.169V18.36ZM136.989 32.56C135.229 32.56 133.655 32.3333 132.269 31.88C130.882 31.4 129.695 30.7067 128.709 29.8C127.749 28.8933 127.015 27.7733 126.509 26.44C126.002 25.1067 125.749 23.5733 125.749 21.84C125.749 20.16 125.989 18.6133 126.469 17.2C126.975 15.7867 127.682 14.5733 128.589 13.56C129.522 12.52 130.655 11.72 131.989 11.16C133.349 10.6 134.869 10.32 136.549 10.32C138.255 10.32 139.749 10.6 141.029 11.16C142.335 11.6933 143.402 12.4933 144.229 13.56C145.082 14.6267 145.709 15.9333 146.109 17.48C146.509 19 146.642 20.7467 146.509 22.72L129.989 22.84V19.48L142.829 19.36L140.549 20.92C140.735 19.5867 140.655 18.5067 140.309 17.68C139.962 16.8267 139.455 16.2133 138.789 15.84C138.122 15.44 137.402 15.24 136.629 15.24C135.695 15.24 134.869 15.4933 134.149 16C133.455 16.5067 132.909 17.24 132.509 18.2C132.109 19.16 131.909 20.3333 131.909 21.72C131.909 23.9067 132.375 25.4933 133.309 26.48C134.269 27.4667 135.482 27.96 136.949 27.96C137.669 27.96 138.269 27.8667 138.749 27.68C139.229 27.4667 139.615 27.2133 139.909 26.92C140.229 26.6 140.469 26.2533 140.629 25.88C140.815 25.5067 140.962 25.1467 141.069 24.8L146.669 26C146.455 26.9867 146.109 27.88 145.629 28.68C145.175 29.48 144.549 30.1733 143.749 30.76C142.975 31.3467 142.029 31.7867 140.909 32.08C139.815 32.4 138.509 32.56 136.989 32.56ZM155.385 32.56C154.212 32.56 153.172 32.3333 152.265 31.88C151.359 31.4 150.652 30.72 150.145 29.84C149.639 28.9333 149.385 27.84 149.385 26.56C149.385 25.36 149.612 24.3733 150.065 23.6C150.545 22.8 151.225 22.1733 152.105 21.72C153.012 21.24 154.092 20.8533 155.345 20.56C156.599 20.24 158.025 19.96 159.625 19.72C160.399 19.5867 161.039 19.4667 161.545 19.36C162.079 19.2267 162.479 19.0267 162.745 18.76C163.012 18.4933 163.145 18.1067 163.145 17.6C163.145 16.9333 162.905 16.36 162.425 15.88C161.945 15.4 161.172 15.16 160.105 15.16C159.359 15.16 158.679 15.2933 158.065 15.56C157.479 15.8267 156.972 16.2133 156.545 16.72C156.119 17.2267 155.799 17.84 155.585 18.56L149.905 16.88C150.252 15.76 150.732 14.7867 151.345 13.96C151.985 13.1333 152.745 12.4533 153.625 11.92C154.505 11.36 155.505 10.96 156.625 10.72C157.772 10.4533 158.985 10.32 160.265 10.32C162.399 10.32 164.132 10.6667 165.465 11.36C166.825 12.0267 167.825 13.08 168.465 14.52C169.132 15.9333 169.465 17.76 169.465 20V23.24C169.465 24.2 169.479 25.1733 169.505 26.16C169.559 27.12 169.612 28.0933 169.665 29.08C169.745 30.04 169.839 31.0133 169.945 32H164.265C164.159 31.3867 164.052 30.6533 163.945 29.8C163.839 28.92 163.759 28.0267 163.705 27.12H162.945C162.572 28.1333 162.025 29.0667 161.305 29.92C160.612 30.7467 159.759 31.4 158.745 31.88C157.759 32.3333 156.639 32.56 155.385 32.56ZM158.305 28C158.785 28 159.265 27.92 159.745 27.76C160.252 27.5733 160.732 27.3333 161.185 27.04C161.639 26.72 162.052 26.3333 162.425 25.88C162.799 25.4267 163.079 24.9333 163.265 24.4L163.185 21.24L164.065 21.44C163.559 21.76 162.999 22.0133 162.385 22.2C161.772 22.3867 161.145 22.5333 160.505 22.64C159.892 22.7467 159.279 22.8667 158.665 23C158.079 23.1067 157.545 23.2533 157.065 23.44C156.612 23.6267 156.252 23.88 155.985 24.2C155.719 24.52 155.585 24.96 155.585 25.52C155.585 26.2667 155.839 26.8667 156.345 27.32C156.852 27.7733 157.505 28 158.305 28ZM182.013 32.56C180.253 32.56 178.706 32.12 177.373 31.24C176.066 30.3333 175.039 29.0533 174.293 27.4C173.546 25.72 173.173 23.72 173.173 21.4C173.173 19.2667 173.493 17.3733 174.133 15.72C174.773 14.0667 175.719 12.7733 176.973 11.84C178.253 10.88 179.826 10.4 181.693 10.4C183.026 10.4 184.146 10.64 185.053 11.12C185.986 11.6 186.759 12.32 187.373 13.28C187.986 14.24 188.479 15.4533 188.853 16.92H189.853C189.666 16.0133 189.493 15.16 189.333 14.36C189.173 13.5333 189.039 12.7733 188.933 12.08C188.853 11.36 188.813 10.7333 188.813 10.2V3.2H195.293V21.68V32H190.013L189.933 25.76H189.053C188.759 27.36 188.293 28.6667 187.653 29.68C187.039 30.6667 186.253 31.4 185.293 31.88C184.359 32.3333 183.266 32.56 182.013 32.56ZM184.333 27.36C185.159 27.36 185.853 27.1867 186.413 26.84C186.999 26.4667 187.466 26 187.813 25.44C188.159 24.88 188.413 24.28 188.573 23.64C188.733 23 188.813 22.4 188.813 21.84V21C188.813 20.4933 188.746 19.9867 188.613 19.48C188.479 18.9733 188.279 18.48 188.013 18C187.773 17.52 187.466 17.0933 187.093 16.72C186.719 16.3467 186.279 16.0533 185.773 15.84C185.293 15.6267 184.759 15.52 184.173 15.52C183.293 15.52 182.533 15.76 181.893 16.24C181.279 16.72 180.799 17.4 180.453 18.28C180.133 19.16 179.973 20.2 179.973 21.4C179.973 22.6 180.146 23.6533 180.493 24.56C180.839 25.44 181.346 26.1333 182.013 26.64C182.679 27.12 183.453 27.36 184.333 27.36Z" fill="black"/>
<path d="M1.76 32H0.76V33H1.76V32ZM1.76 5.6V4.6H0.76V5.6H1.76ZM8.2 5.6H9.2V4.6H8.2V5.6ZM8.2 32V33H9.2V32H8.2ZM2.92 32H1.92V33H2.92V32ZM2.92 26.6V25.6H1.92V26.6H2.92ZM18.96 26.6H19.96V25.6H18.96V26.6ZM18.96 32V33H19.96V32H18.96ZM1.76 32H2.76V5.6H1.76H0.76V32H1.76ZM1.76 5.6V6.6H8.2V5.6V4.6H1.76V5.6ZM8.2 5.6H7.2V32H8.2H9.2V5.6H8.2ZM8.2 32V31H1.76V32V33H8.2V32ZM2.92 32H3.92V26.6H2.92H1.92V32H2.92ZM2.92 26.6V27.6H18.96V26.6V25.6H2.92V26.6ZM18.96 26.6H17.96V32H18.96H19.96V26.6H18.96ZM18.96 32V31H2.92V32V33H18.96V32ZM21.8316 32H20.8316V33H21.8316V32ZM21.8316 10.88V9.88H20.8316V10.88H21.8316ZM28.2716 10.88H29.2716V9.88H28.2716V10.88ZM28.2716 32V33H29.2716V32H28.2716ZM22.2316 7.16L21.5914 7.92822L21.6086 7.94258L21.6265 7.95616L22.2316 7.16ZM22.2316 2.64L22.8523 3.42406L22.8563 3.42087L22.2316 2.64ZM27.9116 2.64L27.2714 3.40822L27.2886 3.42258L27.3065 3.43616L27.9116 2.64ZM27.9116 7.16L28.5323 7.94405L28.5363 7.94087L27.9116 7.16ZM21.8316 32H22.8316V10.88H21.8316H20.8316V32H21.8316ZM21.8316 10.88V11.88H28.2716V10.88V9.88H21.8316V10.88ZM28.2716 10.88H27.2716V32H28.2716H29.2716V10.88H28.2716ZM28.2716 32V31H21.8316V32V33H28.2716V32ZM25.0716 7.92V6.92C23.9658 6.92 23.265 6.68936 22.8366 6.36384L22.2316 7.16L21.6265 7.95616C22.5315 8.64397 23.724 8.92 25.0716 8.92V7.92ZM22.2316 7.16L22.8717 6.39178C22.4959 6.07856 22.2716 5.63372 22.2716 4.92H21.2716H20.2716C20.2716 6.12627 20.6872 7.17477 21.5914 7.92822L22.2316 7.16ZM21.2716 4.92H22.2716C22.2716 4.13102 22.509 3.69578 22.8523 3.42404L22.2316 2.64L21.6109 1.85595C20.6741 2.59755 20.2716 3.68231 20.2716 4.92H21.2716ZM22.2316 2.64L22.8563 3.42087C23.2826 3.07982 23.9754 2.84 25.0716 2.84V1.84V0.84C23.7144 0.84 22.5139 1.13351 21.6069 1.85913L22.2316 2.64ZM25.0716 1.84V2.84C26.2045 2.84 26.8824 3.08403 27.2714 3.40822L27.9116 2.64L28.5517 1.87178C27.6608 1.1293 26.4453 0.84 25.0716 0.84V1.84ZM27.9116 2.64L27.3065 3.43616C27.6782 3.71869 27.9116 4.14299 27.9116 4.88H28.9116H29.9116C29.9116 3.64367 29.4782 2.57465 28.5166 1.84384L27.9116 2.64ZM28.9116 4.88H27.9116C27.9116 5.61605 27.6777 6.06647 27.2869 6.37913L27.9116 7.16L28.5363 7.94087C29.4788 7.18686 29.9116 6.11728 29.9116 4.88H28.9116ZM27.9116 7.16L27.2909 6.37595C26.9001 6.68532 26.2139 6.92 25.0716 6.92V7.92V8.92C26.4359 8.92 27.6431 8.64801 28.5323 7.94404L27.9116 7.16ZM35.9969 38.84L36.2354 37.8688L36.223 37.8659L35.9969 38.84ZM32.7169 37.24L33.4372 36.5464L33.4307 36.5396L33.424 36.5329L32.7169 37.24ZM33.1169 31.68L32.4999 30.8929L32.4895 30.9012L33.1169 31.68ZM37.4369 30.36L37.4931 31.3584L38.4369 31.3052V30.36H37.4369ZM37.4369 29.52H38.4369V28.52H37.4369V29.52ZM34.0369 29.08L33.6822 30.0151L33.6926 30.0189L34.0369 29.08ZM34.0369 25.4L33.4155 24.6165L33.4155 24.6165L34.0369 25.4ZM37.8769 23.96L38.0674 24.9417L38.8769 24.7846V23.96H37.8769ZM37.8769 23.12H38.8769V22.1986L37.9586 22.1233L37.8769 23.12ZM33.9969 21.52L33.2897 22.2272L33.2998 22.237L33.9969 21.52ZM33.6769 14.2L34.4962 14.7735L34.5027 14.764L33.6769 14.2ZM37.0369 11.6L37.4308 12.5191L37.4377 12.5162L37.4445 12.5131L37.0369 11.6ZM53.5969 10.6H54.5969V9.6H53.5969V10.6ZM53.5969 15.44L53.4663 16.4314L54.5969 16.5804V15.44H53.5969ZM46.9169 14.56L47.0475 13.5686L45.9169 13.4196V14.56H46.9169ZM46.9169 15.52H45.9169V16.3911L46.7797 16.5105L46.9169 15.52ZM50.6369 16.72L50.0369 17.52L50.0369 17.52L50.6369 16.72ZM50.6369 21.92L49.8948 21.2497L49.8887 21.2564L49.8828 21.2632L50.6369 21.92ZM47.5569 23.88L47.8788 24.8268L47.8872 24.8239L47.8956 24.8209L47.5569 23.88ZM41.7169 24.52L41.6456 25.5175L41.6504 25.5178L41.7169 24.52ZM39.5969 24.32L39.6989 23.3252L39.2659 23.2808L38.9384 23.5674L39.5969 24.32ZM38.5969 25.28L39.304 25.9871L39.3226 25.9685L39.3402 25.949L38.5969 25.28ZM38.4369 26.36L37.8122 27.1409L37.8122 27.1409L38.4369 26.36ZM38.9969 26.6L38.7799 27.5762L38.8381 27.5891L38.8974 27.595L38.9969 26.6ZM48.3569 26.76L48.2635 27.7556L48.2799 27.7572L48.2964 27.7582L48.3569 26.76ZM50.9569 27.36L50.5805 28.2865L50.5904 28.2904L50.9569 27.36ZM53.1569 29.04L52.3602 29.6444L52.3667 29.653L52.3734 29.6614L53.1569 29.04ZM52.7569 36.28L51.9934 35.634L51.9855 35.6436L52.7569 36.28ZM48.7169 38.64L48.986 39.6031L48.986 39.6031L48.7169 38.64ZM47.9969 33.28L47.2898 32.5729L47.2756 32.587L47.2621 32.6017L47.9969 33.28ZM48.2369 30.88L47.3932 31.4169L47.405 31.4354L47.4176 31.4535L48.2369 30.88ZM46.5969 30.08L46.5063 31.0759L46.5138 31.0765L46.5969 30.08ZM38.4769 30.76L37.7698 30.0529L37.7698 30.0529L38.4769 30.76ZM38.2769 33.52L38.9526 32.7828L38.9352 32.7669L38.9171 32.7518L38.2769 33.52ZM39.7969 34.12L39.6448 35.1084L39.6503 35.1092L39.7969 34.12ZM44.9169 20.44L44.1942 19.7488L44.1862 19.7572L44.1784 19.7657L44.9169 20.44ZM44.9169 15.64L44.1662 16.3006L44.1729 16.3082L44.1797 16.3157L44.9169 15.64ZM39.8369 15.64L40.5589 16.3319L40.5659 16.3246L40.5728 16.3171L39.8369 15.64ZM39.3169 19.8L38.432 20.2657L38.4372 20.2758L38.4427 20.2856L39.3169 19.8ZM40.4769 20.96L39.9758 21.8254L39.9933 21.8355L40.0111 21.8449L40.4769 20.96ZM41.7969 39.4V38.4C39.4949 38.4 37.649 38.2161 36.2354 37.8689L35.9969 38.84L35.7584 39.8111C37.3848 40.2106 39.4055 40.4 41.7969 40.4V39.4ZM35.9969 38.84L36.223 37.8659C34.8248 37.5413 33.9426 37.0712 33.4372 36.5464L32.7169 37.24L31.9966 37.9336C32.8778 38.8488 34.1823 39.4454 35.7707 39.8141L35.9969 38.84ZM32.7169 37.24L33.424 36.5329C32.9251 36.034 32.6769 35.438 32.6769 34.68H31.6769H30.6769C30.6769 35.9486 31.122 37.0593 32.0098 37.9471L32.7169 37.24ZM31.6769 34.68H32.6769C32.6769 33.7577 33.0185 33.0434 33.7442 32.4588L33.1169 31.68L32.4895 30.9012C31.2953 31.8633 30.6769 33.149 30.6769 34.68H31.6769ZM33.1169 31.68L33.7338 32.4671C34.4964 31.8693 35.7056 31.4591 37.4931 31.3584L37.4369 30.36L37.3806 29.3616C35.3815 29.4742 33.7107 29.944 32.5 30.8929L33.1169 31.68ZM37.4369 30.36H38.4369V29.52H37.4369H36.4369V30.36H37.4369ZM37.4369 29.52V28.52C36.0156 28.52 35.019 28.375 34.3811 28.1411L34.0369 29.08L33.6926 30.0189C34.6547 30.3717 35.9248 30.52 37.4369 30.52V29.52ZM34.0369 29.08L34.3915 28.145C34.1469 28.0522 34.0372 27.9488 33.9833 27.8725C33.9312 27.7989 33.8769 27.6744 33.8769 27.44H32.8769H31.8769C31.8769 28.0056 32.0159 28.5545 32.3505 29.0275C32.6832 29.4979 33.1535 29.8145 33.6822 30.015L34.0369 29.08ZM32.8769 27.44H33.8769C33.8769 27.0907 34.0412 26.6729 34.6583 26.1835L34.0369 25.4L33.4155 24.6165C32.4859 25.3538 31.8769 26.2959 31.8769 27.44H32.8769ZM34.0369 25.4L34.6583 26.1835C35.2398 25.7223 36.3264 25.2795 38.0674 24.9417L37.8769 23.96L37.6864 22.9783C35.854 23.3338 34.3807 23.851 33.4155 24.6165L34.0369 25.4ZM37.8769 23.96H38.8769V23.12H37.8769H36.8769V23.96H37.8769ZM37.8769 23.12L37.9586 22.1233C36.5108 22.0047 35.4533 21.5413 34.694 20.803L33.9969 21.52L33.2998 22.237C34.4604 23.3654 35.9896 23.9687 37.7952 24.1167L37.8769 23.12ZM33.9969 21.52L34.704 20.8129C33.9581 20.067 33.5569 19.0816 33.5569 17.76H32.5569H31.5569C31.5569 19.5317 32.1156 21.053 33.2898 22.2271L33.9969 21.52ZM32.5569 17.76H33.5569C33.5569 16.6577 33.8675 15.6714 34.4961 14.7735L33.6769 14.2L32.8576 13.6265C31.9929 14.8619 31.5569 16.2489 31.5569 17.76H32.5569ZM33.6769 14.2L34.5027 14.764C35.12 13.86 36.0724 13.1013 37.4308 12.5191L37.0369 11.6L36.643 10.6809C35.0146 11.3787 33.7271 12.3533 32.8511 13.636L33.6769 14.2ZM37.0369 11.6L37.4445 12.5131C38.7715 11.9208 40.4885 11.6 42.6369 11.6V10.6V9.6C40.3052 9.6 38.289 9.9459 36.6292 10.6869L37.0369 11.6ZM42.6369 10.6V11.6H53.5969V10.6V9.6H42.6369V10.6ZM53.5969 10.6H52.5969V15.44H53.5969H54.5969V10.6H53.5969ZM53.5969 15.44L53.7275 14.4486L47.0475 13.5686L46.9169 14.56L46.7863 15.5514L53.4663 16.4314L53.5969 15.44ZM46.9169 14.56H45.9169V15.52H46.9169H47.9169V14.56H46.9169ZM46.9169 15.52L46.7797 16.5105C48.4683 16.7444 49.4991 17.1167 50.0369 17.52L50.6369 16.72L51.2369 15.92C50.2813 15.2033 48.8321 14.7756 47.054 14.5294L46.9169 15.52ZM50.6369 16.72L50.0369 17.52C50.5077 17.8731 50.7569 18.3502 50.7569 19.08H51.7569H52.7569C52.7569 17.7832 52.2593 16.6869 51.2369 15.92L50.6369 16.72ZM51.7569 19.08H50.7569C50.7569 19.8872 50.4835 20.5979 49.8948 21.2497L50.6369 21.92L51.379 22.5903C52.2836 21.5888 52.7569 20.4061 52.7569 19.08H51.7569ZM50.6369 21.92L49.8828 21.2632C49.3029 21.9291 48.4368 22.5004 47.2182 22.9391L47.5569 23.88L47.8956 24.8209C49.3436 24.2996 50.5309 23.5643 51.391 22.5768L50.6369 21.92ZM47.5569 23.88L47.235 22.9332C46.0315 23.3424 44.559 23.56 42.7969 23.56V24.56V25.56C44.7147 25.56 46.4155 25.3243 47.8788 24.8268L47.5569 23.88ZM42.7969 24.56V23.56C42.5038 23.56 42.1665 23.5478 41.7834 23.5222L41.7169 24.52L41.6504 25.5178C42.0672 25.5456 42.45 25.56 42.7969 25.56V24.56ZM41.7169 24.52L41.7881 23.5225C41.4325 23.4971 40.7406 23.4321 39.6989 23.3252L39.5969 24.32L39.4948 25.3148C40.5331 25.4213 41.2546 25.4895 41.6456 25.5175L41.7169 24.52ZM39.5969 24.32L38.9384 23.5674C38.4968 23.9538 38.1308 24.303 37.8536 24.611L38.5969 25.28L39.3402 25.949C39.543 25.7236 39.8436 25.4329 40.2554 25.0726L39.5969 24.32ZM38.5969 25.28L37.8898 24.5729C37.5691 24.8935 37.2369 25.3611 37.2369 25.96H38.2369H39.2369C39.2369 26.0014 39.2309 26.0358 39.2241 26.0606C39.2175 26.0848 39.2109 26.0974 39.2107 26.0979C39.2105 26.0981 39.2158 26.0882 39.2312 26.0683C39.2465 26.0485 39.2698 26.0213 39.304 25.9871L38.5969 25.28ZM38.2369 25.96H37.2369C37.2369 26.4465 37.46 26.8591 37.8122 27.1409L38.4369 26.36L39.0616 25.5791C39.0915 25.6031 39.1411 25.6525 39.1813 25.7328C39.2224 25.815 39.2369 25.8964 39.2369 25.96H38.2369ZM38.4369 26.36L37.8122 27.1409C38.1054 27.3754 38.4518 27.5033 38.7799 27.5762L38.9969 26.6L39.2138 25.6238C39.1423 25.6079 39.0966 25.5919 39.0708 25.5809C39.0451 25.5698 39.0461 25.5667 39.0616 25.5791L38.4369 26.36ZM38.9969 26.6L38.8974 27.595C39.2 27.6253 39.5134 27.64 39.8369 27.64V26.64V25.64C39.5737 25.64 39.3271 25.628 39.0964 25.605L38.9969 26.6ZM39.8369 26.64V27.64H46.2769V26.64V25.64H39.8369V26.64ZM46.2769 26.64V27.64C46.7662 27.64 47.4251 27.677 48.2635 27.7556L48.3569 26.76L48.4502 25.7644C47.582 25.683 46.8542 25.64 46.2769 25.64V26.64ZM48.3569 26.76L48.2964 27.7582C49.0631 27.8046 49.8233 27.9789 50.5805 28.2865L50.9569 27.36L51.3333 26.4335C50.3838 26.0478 49.4107 25.822 48.4174 25.7618L48.3569 26.76ZM50.9569 27.36L50.5904 28.2904C51.2951 28.5681 51.8813 29.0131 52.3602 29.6444L53.1569 29.04L53.9536 28.4356C53.2592 27.5203 52.3786 26.8453 51.3234 26.4296L50.9569 27.36ZM53.1569 29.04L52.3734 29.6614C52.7949 30.1929 53.0769 31.0455 53.0769 32.36H54.0769H55.0769C55.0769 30.7945 54.7455 29.4338 53.9404 28.4186L53.1569 29.04ZM54.0769 32.36H53.0769C53.0769 33.7355 52.6974 34.8021 51.9935 35.6341L52.7569 36.28L53.5203 36.9259C54.5763 35.6779 55.0769 34.1311 55.0769 32.36H54.0769ZM52.7569 36.28L51.9855 35.6436C51.275 36.5048 50.1338 37.2058 48.4478 37.6769L48.7169 38.64L48.986 39.6031C50.9266 39.0609 52.4787 38.1885 53.5282 36.9164L52.7569 36.28ZM48.7169 38.64L48.4478 37.6769C46.7534 38.1503 44.5456 38.4 41.7969 38.4V39.4V40.4C44.6482 40.4 47.0537 40.143 48.986 39.6031L48.7169 38.64ZM42.6369 34.28V35.28C44.2055 35.28 45.4775 35.1998 46.4212 35.0229L46.2369 34.04L46.0526 33.0571C45.2896 33.2002 44.1616 33.28 42.6369 33.28V34.28ZM46.2369 34.04L46.4212 35.0229C47.3314 34.8522 48.1865 34.5489 48.7317 33.9583L47.9969 33.28L47.2621 32.6017C47.1673 32.7044 46.849 32.9078 46.0526 33.0571L46.2369 34.04ZM47.9969 33.28L48.704 33.9871C49.2451 33.446 49.5169 32.762 49.5169 32H48.5169H47.5169C47.5169 32.2514 47.442 32.4207 47.2898 32.5729L47.9969 33.28ZM48.5169 32H49.5169C49.5169 31.4073 49.4042 30.8038 49.0561 30.3065L48.2369 30.88L47.4176 31.4535C47.4429 31.4896 47.5169 31.6327 47.5169 32H48.5169ZM48.2369 30.88L49.0805 30.3431C48.7898 29.8862 48.3827 29.5308 47.8586 29.3402L47.5169 30.28L47.1751 31.2198C47.2377 31.2426 47.3107 31.2871 47.3932 31.4169L48.2369 30.88ZM47.5169 30.28L47.8586 29.3402C47.4796 29.2024 47.0857 29.1173 46.6799 29.0835L46.5969 30.08L46.5138 31.0765C46.748 31.0961 46.9675 31.1443 47.1751 31.2198L47.5169 30.28ZM46.5969 30.08L46.6874 29.0841C46.3744 29.0557 46.0893 29.04 45.8369 29.04V30.04V31.04C46.0111 31.04 46.2327 31.051 46.5063 31.0759L46.5969 30.08ZM45.8369 30.04V29.04H40.6769V30.04V31.04H45.8369V30.04ZM40.6769 30.04V29.04C39.5453 29.04 38.508 29.3146 37.7698 30.0529L38.4769 30.76L39.184 31.4671C39.4057 31.2454 39.8351 31.04 40.6769 31.04V30.04ZM38.4769 30.76L37.7698 30.0529C37.1384 30.6843 36.7969 31.4684 36.7969 32.36H37.7969H38.7969C38.7969 32.025 38.9087 31.7424 39.184 31.4671L38.4769 30.76ZM37.7969 32.36H36.7969C36.7969 33.0929 37.0396 33.7906 37.6367 34.2882L38.2769 33.52L38.9171 32.7518C38.8742 32.7161 38.7969 32.6404 38.7969 32.36H37.7969ZM38.2769 33.52L37.6012 34.2572C38.1316 34.7434 38.8656 34.9885 39.6448 35.1084L39.7969 34.12L39.9489 33.1316C39.3415 33.0382 39.0621 32.8833 38.9526 32.7828L38.2769 33.52ZM39.7969 34.12L39.6503 35.1092C40.439 35.226 41.4403 35.28 42.6369 35.28V34.28V33.28C41.4868 33.28 40.5948 33.2273 39.9434 33.1308L39.7969 34.12ZM42.3569 21.36V22.36C43.6738 22.36 44.8423 22.0048 45.6554 21.1143L44.9169 20.44L44.1784 19.7657C43.8715 20.1019 43.3333 20.36 42.3569 20.36V21.36ZM44.9169 20.44L45.6395 21.1312C46.4227 20.3125 46.7969 19.2828 46.7969 18.12H45.7969H44.7969C44.7969 18.8238 44.5844 19.3408 44.1942 19.7488L44.9169 20.44ZM45.7969 18.12H46.7969C46.7969 16.901 46.4376 15.8191 45.654 14.9643L44.9169 15.64L44.1797 16.3157C44.5695 16.7409 44.7969 17.3123 44.7969 18.12H45.7969ZM44.9169 15.64L45.6676 14.9794C44.8482 14.0482 43.7056 13.64 42.3969 13.64V14.64V15.64C43.2748 15.64 43.8122 15.8984 44.1662 16.3006L44.9169 15.64ZM42.3969 14.64V13.64C41.0865 13.64 39.9423 14.0485 39.1009 14.9629L39.8369 15.64L40.5728 16.3171C40.9582 15.8982 41.5206 15.64 42.3969 15.64V14.64ZM39.8369 15.64L39.1149 14.9481C38.2974 15.8012 37.9169 16.8887 37.9169 18.12H38.9169H39.9169C39.9169 17.3247 40.1497 16.7588 40.5589 16.3319L39.8369 15.64ZM38.9169 18.12H37.9169C37.9169 18.8838 38.0844 19.6053 38.432 20.2657L39.3169 19.8L40.2018 19.3343C40.0161 18.9813 39.9169 18.5829 39.9169 18.12H38.9169ZM39.3169 19.8L38.4427 20.2856C38.803 20.9342 39.3235 21.4478 39.9758 21.8254L40.4769 20.96L40.9779 20.0946C40.6169 19.8856 40.3641 19.6258 40.191 19.3144L39.3169 19.8ZM40.4769 20.96L40.0111 21.8449C40.6984 22.2066 41.4956 22.36 42.3569 22.36V21.36V20.36C41.7248 20.36 41.2687 20.2467 40.9426 20.0751L40.4769 20.96ZM57.5738 32H56.5738V33H57.5738V32ZM57.5738 3.2V2.2H56.5738V3.2H57.5738ZM64.0138 3.2H65.0138V2.2H64.0138V3.2ZM63.9338 11.48L62.9379 11.3895L62.9359 11.4109L62.9349 11.4324L63.9338 11.48ZM63.7338 13.24L62.7485 13.0687L62.7454 13.0867L62.7429 13.1049L63.7338 13.24ZM63.4538 15.04L62.4685 14.8687L62.4649 14.8896L62.4621 14.9107L63.4538 15.04ZM63.1338 16.84L62.1586 16.6184L61.881 17.84H63.1338V16.84ZM64.0938 16.84V17.84H64.8481L65.0553 17.1147L64.0938 16.84ZM65.4938 13.44L66.3576 13.9439L66.3634 13.9336L65.4938 13.44ZM67.6938 11.16L68.2008 12.0219L68.2101 12.0165L68.2192 12.0108L67.6938 11.16ZM76.7738 12.96L75.9534 13.5318L75.9583 13.5389L75.9634 13.5459L76.7738 12.96ZM78.6538 32V33H79.6538V32H78.6538ZM72.1738 32H71.1738V33H72.1738V32ZM71.2138 17.24L70.3416 17.7293L70.3487 17.742L70.3563 17.7545L71.2138 17.24ZM65.9338 16.52L66.6257 17.242L66.6257 17.242L65.9338 16.52ZM64.4938 19L65.4474 19.3011L65.4495 19.2941L64.4938 19ZM64.0138 32V33H65.0138V32H64.0138ZM57.5738 32H58.5738V18.56H57.5738H56.5738V32H57.5738ZM57.5738 18.56H58.5738V3.2H57.5738H56.5738V18.56H57.5738ZM57.5738 3.2V4.2H64.0138V3.2V2.2H57.5738V3.2ZM64.0138 3.2H63.0138V9.8H64.0138H65.0138V3.2H64.0138ZM64.0138 9.8H63.0138C63.0138 10.3002 62.9887 10.8298 62.9379 11.3895L63.9338 11.48L64.9296 11.5705C64.9854 10.9568 65.0138 10.3665 65.0138 9.8H64.0138ZM63.9338 11.48L62.9349 11.4324C62.9104 11.9467 62.8489 12.4919 62.7485 13.0687L63.7338 13.24L64.719 13.4113C64.832 12.7615 64.9038 12.1333 64.9326 11.5276L63.9338 11.48ZM63.7338 13.24L62.7429 13.1049C62.6647 13.6788 62.5732 14.2668 62.4685 14.8687L63.4538 15.04L64.439 15.2113C64.5476 14.5866 64.6428 13.9745 64.7246 13.3751L63.7338 13.24ZM63.4538 15.04L62.4621 14.9107C62.3861 15.4939 62.2848 16.063 62.1586 16.6184L63.1338 16.84L64.1089 17.0616C64.2493 16.4436 64.3614 15.8128 64.4454 15.1693L63.4538 15.04ZM63.1338 16.84V17.84H64.0938V16.84V15.84H63.1338V16.84ZM64.0938 16.84L65.0553 17.1147C65.4106 15.8711 65.8476 14.818 66.3575 13.9439L65.4938 13.44L64.63 12.9361C64.0199 13.982 63.5236 15.1955 63.1322 16.5653L64.0938 16.84ZM65.4938 13.44L66.3634 13.9336C66.8439 13.087 67.457 12.4595 68.2008 12.0219L67.6938 11.16L67.1867 10.2981C66.1172 10.9272 65.2636 11.8197 64.6241 12.9464L65.4938 13.44ZM67.6938 11.16L68.2192 12.0108C68.9244 11.5753 69.887 11.32 71.1738 11.32V10.32V9.32C69.6338 9.32 68.2765 9.62471 67.1683 10.3092L67.6938 11.16ZM71.1738 10.32V11.32C73.4167 11.32 74.9472 12.0881 75.9534 13.5318L76.7738 12.96L77.5942 12.3882C76.147 10.3119 73.9442 9.32 71.1738 9.32V10.32ZM76.7738 12.96L75.9634 13.5459C77.0339 15.0264 77.6538 17.4521 77.6538 21H78.6538H79.6538C79.6538 17.2946 79.0203 14.3602 77.5841 12.3741L76.7738 12.96ZM78.6538 21H77.6538V32H78.6538H79.6538V21H78.6538ZM78.6538 32V31H72.1738V32V33H78.6538V32ZM72.1738 32H73.1738V22.08H72.1738H71.1738V32H72.1738ZM72.1738 22.08H73.1738C73.1738 19.8554 72.8503 18.0239 72.0712 16.7255L71.2138 17.24L70.3563 17.7545C70.8572 18.5894 71.1738 19.9846 71.1738 22.08H72.1738ZM71.2138 17.24L72.0859 16.7507C71.7044 16.0708 71.1945 15.5197 70.5438 15.144C69.8942 14.7689 69.1591 14.6 68.3738 14.6V15.6V16.6C68.8684 16.6 69.2466 16.7044 69.5437 16.876C69.8397 17.0469 70.1097 17.3159 70.3416 17.7293L71.2138 17.24ZM68.3738 15.6V14.6C67.1609 14.6 66.0897 14.9855 65.2418 15.798L65.9338 16.52L66.6257 17.242C67.0578 16.8279 67.6132 16.6 68.3738 16.6V15.6ZM65.9338 16.52L65.2418 15.798C64.4539 16.5532 63.8968 17.5398 63.538 18.7059L64.4938 19L65.4495 19.2941C65.7307 18.3802 66.1336 17.7135 66.6257 17.242L65.9338 16.52ZM64.4938 19L63.5402 18.6989C63.1845 19.8253 63.0138 21.0623 63.0138 22.4H64.0138H65.0138C65.0138 21.231 65.163 20.2014 65.4473 19.3011L64.4938 19ZM64.0138 22.4H63.0138V32H64.0138H65.0138V22.4H64.0138ZM64.0138 32V31H57.5738V32V33H64.0138V32ZM85.9588 30.56L85.208 31.2207L85.2147 31.2281L85.9588 30.56ZM84.1988 15.92H85.1988V14.92H84.1988V15.92ZM81.1988 15.92L80.199 15.896L80.1745 16.92H81.1988V15.92ZM81.3188 10.92V9.92H80.3425L80.319 10.896L81.3188 10.92ZM83.4788 10.92V11.92H83.4944L83.51 11.9195L83.4788 10.92ZM85.3988 10.52L84.9309 9.63621L84.9196 9.64218L84.9085 9.64842L85.3988 10.52ZM86.2388 9.16L85.2538 8.98697L85.2525 8.99448L85.2513 9.00201L86.2388 9.16ZM86.7588 6.2V5.2H85.9191L85.7738 6.02697L86.7588 6.2ZM90.3988 6.2H91.3988V5.2H90.3988V6.2ZM90.3988 10.88H89.3988V11.88H90.3988V10.88ZM95.4788 10.88H96.4788V9.88H95.4788V10.88ZM95.4788 16.12V17.12H96.4788V16.12H95.4788ZM90.3988 16.12V15.12H89.3988V16.12H90.3988ZM91.0388 25.92L90.3316 26.6271L90.3424 26.6378L90.3534 26.6482L91.0388 25.92ZM94.5188 26.4L94.7478 27.3734L94.7478 27.3734L94.5188 26.4ZM95.6388 25.96H96.6388V24.1383L95.1019 25.1163L95.6388 25.96ZM95.6388 31.92L95.937 32.8745L96.6388 32.6552V31.92H95.6388ZM93.2788 32.4L93.2049 31.4027L93.1845 31.4042L93.1641 31.4066L93.2788 32.4ZM91.4388 32.52V31.52C89.1222 31.52 87.6187 30.9118 86.7028 29.8919L85.9588 30.56L85.2147 31.2281C86.6455 32.8215 88.7953 33.52 91.4388 33.52V32.52ZM85.9588 30.56L86.7095 29.8994C85.7719 28.834 85.1988 27.0083 85.1988 24.2H84.1988H83.1988C83.1988 27.205 83.7989 29.6194 85.208 31.2206L85.9588 30.56ZM84.1988 24.2H85.1988V15.92H84.1988H83.1988V24.2H84.1988ZM84.1988 15.92V14.92H81.1988V15.92V16.92H84.1988V15.92ZM81.1988 15.92L82.1985 15.944L82.3185 10.944L81.3188 10.92L80.319 10.896L80.199 15.896L81.1988 15.92ZM81.3188 10.92V11.92H83.4788V10.92V9.92H81.3188V10.92ZM83.4788 10.92L83.51 11.9195C84.421 11.891 85.2532 11.7492 85.889 11.3916L85.3988 10.52L84.9085 9.64842C84.6909 9.77079 84.2432 9.89562 83.4475 9.92049L83.4788 10.92ZM85.3988 10.52L85.8666 11.4038C86.6809 10.9727 87.087 10.188 87.2262 9.31799L86.2388 9.16L85.2513 9.00201C85.1772 9.46534 85.0233 9.58727 84.9309 9.63621L85.3988 10.52ZM86.2388 9.16L87.2237 9.33302L87.7437 6.37302L86.7588 6.2L85.7738 6.02697L85.2538 8.98697L86.2388 9.16ZM86.7588 6.2V7.2H90.3988V6.2V5.2H86.7588V6.2ZM90.3988 6.2H89.3988V10.88H90.3988H91.3988V6.2H90.3988ZM90.3988 10.88V11.88H95.4788V10.88V9.88H90.3988V10.88ZM95.4788 10.88H94.4788V16.12H95.4788H96.4788V10.88H95.4788ZM95.4788 16.12V15.12H90.3988V16.12V17.12H95.4788V16.12ZM90.3988 16.12H89.3988V23.92H90.3988H91.3988V16.12H90.3988ZM90.3988 23.92H89.3988C89.3988 24.9602 89.6413 25.9368 90.3316 26.6271L91.0388 25.92L91.7459 25.2129C91.5828 25.0499 91.3988 24.6931 91.3988 23.92H90.3988ZM91.0388 25.92L90.3534 26.6482C91.0619 27.315 92.0325 27.56 93.0788 27.56V26.56V25.56C92.3116 25.56 91.9223 25.3783 91.7241 25.1918L91.0388 25.92ZM93.0788 26.56V27.56C93.6558 27.56 94.2131 27.4992 94.7478 27.3734L94.5188 26.4L94.2897 25.4266C93.9177 25.5141 93.515 25.56 93.0788 25.56V26.56ZM94.5188 26.4L94.7478 27.3734C95.2756 27.2492 95.7617 27.0671 96.1756 26.8037L95.6388 25.96L95.1019 25.1163C94.9292 25.2263 94.6686 25.3374 94.2897 25.4266L94.5188 26.4ZM95.6388 25.96H94.6388V31.92H95.6388H96.6388V25.96H95.6388ZM95.6388 31.92L95.3405 30.9655C94.5435 31.2146 93.8332 31.3562 93.2049 31.4027L93.2788 32.4L93.3526 33.3973C94.1643 33.3371 95.0273 33.1588 95.937 32.8745L95.6388 31.92ZM93.2788 32.4L93.1641 31.4066C92.498 31.4835 91.9242 31.52 91.4388 31.52V32.52V33.52C92.02 33.52 92.6729 33.4765 93.3934 33.3934L93.2788 32.4ZM99.7288 32H98.7288V33H99.7288V32ZM99.7288 5.6V4.6H98.7288V5.6H99.7288ZM114.969 5.96L114.773 6.94058L114.783 6.94268L114.794 6.94456L114.969 5.96ZM118.129 6.96L117.682 7.85443L117.697 7.86222L117.713 7.86947L118.129 6.96ZM120.489 8.56L119.782 9.26711L119.789 9.27463L119.797 9.28199L120.489 8.56ZM121.929 10.72L120.996 11.081L121 11.0914L121.929 10.72ZM121.969 15.92L121.038 15.5543L121.038 15.5543L121.969 15.92ZM120.609 17.88L119.934 17.1415L119.926 17.149L119.918 17.1566L120.609 17.88ZM118.369 19.24L118.726 20.1741L118.726 20.1741L118.369 19.24ZM115.209 20L115.077 19.0088L114.209 19.1245V20H115.209ZM115.209 20.6H114.209V21.5003L115.104 21.5945L115.209 20.6ZM118.729 21.64L118.187 22.4803L118.202 22.4904L118.218 22.4999L118.729 21.64ZM120.689 23.68L121.572 23.2108L121.572 23.2108L120.689 23.68ZM121.889 26.76L120.928 27.0375L120.928 27.0386L121.889 26.76ZM123.409 32V33H124.74L124.369 31.7214L123.409 32ZM116.249 32L115.276 32.2331L115.46 33H116.249V32ZM115.089 27.16L114.113 27.3795L114.116 27.3931L115.089 27.16ZM114.089 24.68L113.263 25.2433L113.271 25.2559L113.28 25.2682L114.089 24.68ZM112.529 23.48L112.178 24.4163L112.195 24.4228L112.213 24.4287L112.529 23.48ZM106.169 23.12V22.12H105.169V23.12H106.169ZM106.169 32V33H107.169V32H106.169ZM106.169 18.36H105.169V19.36H106.169V18.36ZM114.329 17.4L114.905 18.217L114.905 18.217L114.329 17.4ZM114.449 11.44L113.837 12.2307L113.837 12.2307L114.449 11.44ZM106.169 10.48V9.48H105.169V10.48H106.169ZM99.7288 32H100.729V5.6H99.7288H98.7288V32H99.7288ZM99.7288 5.6V6.6H110.969V5.6V4.6H99.7288V5.6ZM110.969 5.6V6.6C112.382 6.6 113.648 6.71574 114.773 6.94058L114.969 5.96L115.165 4.97942C113.889 4.72426 112.489 4.6 110.969 4.6V5.6ZM114.969 5.96L114.794 6.94456C115.918 7.14436 116.876 7.45171 117.682 7.85443L118.129 6.96L118.576 6.06557C117.568 5.56163 116.42 5.2023 115.144 4.97544L114.969 5.96ZM118.129 6.96L117.713 7.86947C118.552 8.25315 119.236 8.72187 119.782 9.26711L120.489 8.56L121.196 7.85289C120.461 7.11812 119.572 6.52018 118.545 6.05052L118.129 6.96ZM120.489 8.56L119.797 9.28199C120.331 9.79405 120.729 10.3908 120.996 11.081L121.929 10.72L122.861 10.359C122.488 9.39585 121.926 8.55261 121.181 7.83801L120.489 8.56ZM121.929 10.72L121 11.0914C121.267 11.7574 121.409 12.5223 121.409 13.4H122.409H123.409C123.409 12.3044 123.231 11.2826 122.857 10.3486L121.929 10.72ZM122.409 13.4H121.409C121.409 14.2283 121.279 14.9415 121.038 15.5543L121.969 15.92L122.9 16.2857C123.245 15.4051 123.409 14.4383 123.409 13.4H122.409ZM121.969 15.92L121.038 15.5543C120.803 16.1537 120.439 16.6808 119.934 17.1415L120.609 17.88L121.283 18.6185C122.005 17.9592 122.548 17.1796 122.9 16.2857L121.969 15.92ZM120.609 17.88L119.918 17.1566C119.445 17.6088 118.818 17.9975 118.012 18.3059L118.369 19.24L118.726 20.1741C119.733 19.7891 120.6 19.2712 121.299 18.6034L120.609 17.88ZM118.369 19.24L118.012 18.3059C117.193 18.6191 116.218 18.8566 115.077 19.0088L115.209 20L115.341 20.9912C116.6 20.8234 117.731 20.5543 118.726 20.1741L118.369 19.24ZM115.209 20H114.209V20.6H115.209H116.209V20H115.209ZM115.209 20.6L115.104 21.5945C116.546 21.7463 117.545 22.0661 118.187 22.4803L118.729 21.64L119.271 20.7997C118.259 20.1472 116.911 19.7737 115.313 19.6055L115.209 20.6ZM118.729 21.64L118.218 22.4999C118.918 22.9156 119.441 23.4623 119.806 24.1492L120.689 23.68L121.572 23.2108C121.03 22.191 120.246 21.3778 119.239 20.7801L118.729 21.64ZM120.689 23.68L119.806 24.1492C120.219 24.9268 120.595 25.8857 120.928 27.0375L121.889 26.76L122.849 26.4825C122.489 25.2343 122.065 24.1399 121.572 23.2108L120.689 23.68ZM121.889 26.76L120.928 27.0386L122.448 32.2786L123.409 32L124.369 31.7214L122.849 26.4814L121.889 26.76ZM123.409 32V31H116.249V32V33H123.409V32ZM116.249 32L117.221 31.7669L116.061 26.9269L115.089 27.16L114.116 27.3931L115.276 32.2331L116.249 32ZM115.089 27.16L116.064 26.9405C115.808 25.8019 115.434 24.8301 114.897 24.0918L114.089 24.68L113.28 25.2682C113.596 25.7033 113.889 26.3847 114.113 27.3795L115.089 27.16ZM114.089 24.68L114.915 24.1167C114.399 23.3594 113.704 22.8176 112.845 22.5313L112.529 23.48L112.213 24.4287C112.634 24.569 112.979 24.8273 113.263 25.2433L114.089 24.68ZM112.529 23.48L112.88 22.5437C112.092 22.2483 111.164 22.12 110.129 22.12V23.12V24.12C111.014 24.12 111.685 24.2317 112.178 24.4163L112.529 23.48ZM110.129 23.12V22.12H106.169V23.12V24.12H110.129V23.12ZM106.169 23.12H105.169V32H106.169H107.169V23.12H106.169ZM106.169 32V31H99.7288V32V33H106.169V32ZM106.169 18.36V19.36H110.529V18.36V17.36H106.169V18.36ZM110.529 18.36V19.36C112.27 19.36 113.768 19.0198 114.905 18.217L114.329 17.4L113.752 16.583C113.076 17.0602 112.041 17.36 110.529 17.36V18.36ZM114.329 17.4L114.905 18.217C116.139 17.3465 116.689 16.0022 116.689 14.4H115.689H114.689C114.689 15.5178 114.332 16.1735 113.752 16.583L114.329 17.4ZM115.689 14.4H116.689C116.689 12.8506 116.198 11.5293 115.061 10.6493L114.449 11.44L113.837 12.2307C114.353 12.6307 114.689 13.2827 114.689 14.4H115.689ZM114.449 11.44L115.061 10.6493C113.981 9.81313 112.466 9.48 110.689 9.48V10.48V11.48C112.272 11.48 113.263 11.7869 113.837 12.2307L114.449 11.44ZM110.689 10.48V9.48H106.169V10.48V11.48H110.689V10.48ZM106.169 10.48H105.169V18.36H106.169H107.169V10.48H106.169ZM132.269 31.88L131.942 32.825L131.95 32.8278L131.958 32.8305L132.269 31.88ZM128.709 29.8L128.022 30.5271L128.032 30.5363L128.709 29.8ZM126.509 26.44L127.444 26.0848L127.444 26.0848L126.509 26.44ZM126.469 17.2L125.527 16.8625L125.525 16.8705L125.522 16.8784L126.469 17.2ZM128.589 13.56L127.845 12.8921L127.844 12.8932L128.589 13.56ZM131.989 11.16L131.608 10.2353L131.602 10.238L131.989 11.16ZM141.029 11.16L140.628 12.0762L140.639 12.0811L140.651 12.0858L141.029 11.16ZM144.229 13.56L143.438 14.1726L143.443 14.1787L143.448 14.1847L144.229 13.56ZM146.109 17.48L145.141 17.7304L145.142 17.7345L146.109 17.48ZM146.509 22.72L146.516 23.72L147.444 23.7132L147.506 22.7874L146.509 22.72ZM129.989 22.84H128.989V23.8473L129.996 23.84L129.989 22.84ZM129.989 19.48L129.979 18.48L128.989 18.4893V19.48H129.989ZM142.829 19.36L143.393 20.1853L146.106 18.3293L142.819 18.36L142.829 19.36ZM140.549 20.92L139.558 20.7814L139.244 23.0241L141.113 21.7453L140.549 20.92ZM140.309 17.68L139.382 18.0564L139.387 18.0667L140.309 17.68ZM138.789 15.84L138.274 16.6975L138.287 16.7052L138.3 16.7125L138.789 15.84ZM134.149 16L133.573 15.1822L133.566 15.1873L133.559 15.1926L134.149 16ZM132.509 18.2L131.586 17.8154L131.586 17.8154L132.509 18.2ZM133.309 26.48L132.582 27.1673L132.592 27.1774L133.309 26.48ZM138.749 27.68L139.111 28.612L139.133 28.6034L139.155 28.5938L138.749 27.68ZM139.909 26.92L139.202 26.2129L139.202 26.2129L139.909 26.92ZM140.629 25.88L139.734 25.4328L139.721 25.4591L139.71 25.4861L140.629 25.88ZM141.069 24.8L141.278 23.8222L140.382 23.6302L140.113 24.5059L141.069 24.8ZM146.669 26L147.646 26.2113L147.858 25.2321L146.878 25.0222L146.669 26ZM145.629 28.68L144.771 28.1655L144.765 28.1762L144.759 28.187L145.629 28.68ZM143.749 30.76L143.157 29.9536L143.151 29.9584L143.144 29.9633L143.749 30.76ZM140.909 32.08L140.655 31.1126L140.642 31.1162L140.628 31.1203L140.909 32.08ZM136.989 32.56V31.56C135.313 31.56 133.848 31.3441 132.579 30.9295L132.269 31.88L131.958 32.8305C133.463 33.3226 135.144 33.56 136.989 33.56V32.56ZM132.269 31.88L132.596 30.935C131.326 30.4956 130.262 29.8691 129.385 29.0637L128.709 29.8L128.032 30.5363C129.129 31.5443 130.438 32.3044 131.942 32.825L132.269 31.88ZM128.709 29.8L129.395 29.073C128.554 28.2781 127.901 27.2886 127.444 26.0848L126.509 26.44L125.574 26.7952C126.13 28.2581 126.944 29.5086 128.022 30.527L128.709 29.8ZM126.509 26.44L127.444 26.0848C126.988 24.8864 126.749 23.4773 126.749 21.84H125.749H124.749C124.749 23.6694 125.016 25.3269 125.574 26.7952L126.509 26.44ZM125.749 21.84H126.749C126.749 20.2558 126.975 18.8192 127.416 17.5216L126.469 17.2L125.522 16.8784C125.003 18.4074 124.749 20.0642 124.749 21.84H125.749ZM126.469 17.2L127.41 17.5375C127.878 16.2329 128.522 15.1345 129.334 14.2268L128.589 13.56L127.844 12.8932C126.842 14.0122 126.073 15.3405 125.527 16.8625L126.469 17.2ZM128.589 13.56L129.333 14.2279C130.164 13.3018 131.174 12.5868 132.376 12.082L131.989 11.16L131.602 10.238C130.137 10.8532 128.88 11.7382 127.845 12.8921L128.589 13.56ZM131.989 11.16L132.37 12.0847C133.593 11.581 134.981 11.32 136.549 11.32V10.32V9.32C134.757 9.32 133.105 9.61902 131.608 10.2353L131.989 11.16ZM136.549 10.32V11.32C138.147 11.32 139.499 11.5823 140.628 12.0762L141.029 11.16L141.43 10.2438C139.998 9.61772 138.364 9.32 136.549 9.32V10.32ZM141.029 11.16L140.651 12.0858C141.803 12.556 142.724 13.2512 143.438 14.1726L144.229 13.56L145.019 12.9474C144.08 11.7354 142.868 10.8307 141.407 10.2342L141.029 11.16ZM144.229 13.56L143.448 14.1847C144.199 15.1241 144.77 16.2974 145.141 17.7304L146.109 17.48L147.077 17.2296C146.648 15.5693 145.965 14.1292 145.01 12.9353L144.229 13.56ZM146.109 17.48L145.142 17.7345C145.508 19.1265 145.639 20.7608 145.511 22.6526L146.509 22.72L147.506 22.7874C147.645 20.7325 147.51 18.8735 147.076 17.2255L146.109 17.48ZM146.509 22.72L146.501 21.72L129.981 21.84L129.989 22.84L129.996 23.84L146.516 23.72L146.509 22.72ZM129.989 22.84H130.989V19.48H129.989H128.989V22.84H129.989ZM129.989 19.48L129.998 20.48L142.838 20.36L142.829 19.36L142.819 18.36L129.979 18.48L129.989 19.48ZM142.829 19.36L142.264 18.5347L139.984 20.0947L140.549 20.92L141.113 21.7453L143.393 20.1853L142.829 19.36ZM140.549 20.92L141.539 21.0586C141.739 19.6301 141.674 18.3489 141.231 17.2933L140.309 17.68L139.387 18.0667C139.637 18.6644 139.732 19.5432 139.558 20.7814L140.549 20.92ZM140.309 17.68L141.235 17.3036C140.821 16.2847 140.18 15.4732 139.277 14.9675L138.789 15.84L138.3 16.7125C138.73 16.9535 139.103 17.3686 139.382 18.0564L140.309 17.68ZM138.789 15.84L139.303 14.9825C138.482 14.4898 137.584 14.24 136.629 14.24V15.24V16.24C137.22 16.24 137.762 16.3902 138.274 16.6975L138.789 15.84ZM136.629 15.24V14.24C135.503 14.24 134.472 14.5496 133.573 15.1822L134.149 16L134.724 16.8178C135.265 16.437 135.888 16.24 136.629 16.24V15.24ZM134.149 16L133.559 15.1926C132.689 15.8279 132.041 16.7224 131.586 17.8154L132.509 18.2L133.432 18.5846C133.776 17.7576 134.221 17.1855 134.739 16.8074L134.149 16ZM132.509 18.2L131.586 17.8154C131.121 18.9305 130.909 20.2429 130.909 21.72H131.909H132.909C132.909 20.4238 133.096 19.3895 133.432 18.5846L132.509 18.2ZM131.909 21.72H130.909C130.909 24.0138 131.393 25.9095 132.582 27.1672L133.309 26.48L134.035 25.7928C133.358 25.0771 132.909 23.7995 132.909 21.72H131.909ZM133.309 26.48L132.592 27.1774C133.754 28.3712 135.232 28.96 136.949 28.96V27.96V26.96C135.732 26.96 134.784 26.5622 134.025 25.7826L133.309 26.48ZM136.949 27.96V28.96C137.747 28.96 138.48 28.8576 139.111 28.612L138.749 27.68L138.386 26.748C138.058 26.8757 137.59 26.96 136.949 26.96V27.96ZM138.749 27.68L139.155 28.5938C139.718 28.3433 140.216 28.0269 140.616 27.6271L139.909 26.92L139.202 26.2129C139.015 26.3998 138.739 26.59 138.343 26.7662L138.749 27.68ZM139.909 26.92L140.616 27.6271C141.016 27.2274 141.332 26.7768 141.548 26.2739L140.629 25.88L139.71 25.4861C139.605 25.7299 139.442 25.9726 139.202 26.2129L139.909 26.92ZM140.629 25.88L141.523 26.3272C141.731 25.9118 141.899 25.5006 142.025 25.0941L141.069 24.8L140.113 24.5059C140.025 24.7928 139.9 25.1015 139.734 25.4328L140.629 25.88ZM141.069 24.8L140.859 25.7778L146.459 26.9778L146.669 26L146.878 25.0222L141.278 23.8222L141.069 24.8ZM146.669 26L145.691 25.7887C145.499 26.6772 145.191 27.4667 144.771 28.1655L145.629 28.68L146.486 29.1945C147.027 28.2933 147.412 27.2962 147.646 26.2113L146.669 26ZM145.629 28.68L144.759 28.187C144.38 28.8545 143.853 29.4438 143.157 29.9536L143.749 30.76L144.34 31.5664C145.245 30.9028 145.97 30.1055 146.499 29.173L145.629 28.68ZM143.749 30.76L143.144 29.9633C142.494 30.4568 141.672 30.8463 140.655 31.1126L140.909 32.08L141.162 33.0474C142.385 32.727 143.457 32.2365 144.353 31.5567L143.749 30.76ZM140.909 32.08L140.628 31.1203C139.65 31.4063 138.443 31.56 136.989 31.56V32.56V33.56C138.574 33.56 139.98 33.3937 141.19 33.0397L140.909 32.08ZM152.265 31.88L151.797 32.7638L151.808 32.7692L151.818 32.7744L152.265 31.88ZM150.145 29.84L149.272 30.3279L149.279 30.339L150.145 29.84ZM150.065 23.6L149.208 23.0855L149.203 23.0943L150.065 23.6ZM152.105 21.72L152.563 22.609L152.573 22.6038L152.105 21.72ZM155.345 20.56L155.573 21.5337L155.583 21.5314L155.593 21.5289L155.345 20.56ZM159.625 19.72L159.774 20.7089L159.784 20.7073L159.795 20.7055L159.625 19.72ZM161.545 19.36L161.751 20.3385L161.77 20.3347L161.788 20.3301L161.545 19.36ZM162.745 18.76L162.038 18.0529L162.038 18.0529L162.745 18.76ZM158.065 15.56L157.667 14.6429L157.659 14.6462L157.652 14.6496L158.065 15.56ZM156.545 16.72L155.78 16.0759L155.78 16.0759L156.545 16.72ZM155.585 18.56L155.302 19.5189L156.26 19.8024L156.544 18.8441L155.585 18.56ZM149.905 16.88L148.95 16.5843L148.651 17.5517L149.622 17.8389L149.905 16.88ZM151.345 13.96L150.555 13.3478L150.548 13.3559L150.542 13.3642L151.345 13.96ZM153.625 11.92L154.144 12.7752L154.153 12.7695L154.162 12.7637L153.625 11.92ZM156.625 10.72L156.835 11.6978L156.843 11.696L156.852 11.694L156.625 10.72ZM165.465 11.36L165.004 12.2472L165.014 12.2527L165.025 12.2579L165.465 11.36ZM168.465 14.52L167.552 14.9261L167.556 14.9364L167.561 14.9466L168.465 14.52ZM169.505 26.16L168.506 26.187L168.506 26.2013L168.507 26.2155L169.505 26.16ZM169.665 29.08L168.667 29.134L168.668 29.1485L168.669 29.163L169.665 29.08ZM169.945 32V33H171.059L170.94 31.8925L169.945 32ZM164.265 32L163.28 32.1713L163.424 33H164.265V32ZM163.945 29.8L162.953 29.9203L162.953 29.924L163.945 29.8ZM163.705 27.12L164.704 27.0613L164.648 26.12H163.705V27.12ZM162.945 27.12V26.12H162.248L162.007 26.7743L162.945 27.12ZM161.305 29.92L160.541 29.2751L160.539 29.2774L161.305 29.92ZM158.745 31.88L159.163 32.7887L159.173 32.7837L158.745 31.88ZM159.745 27.76L160.062 28.7087L160.076 28.7037L160.091 28.6983L159.745 27.76ZM161.185 27.04L161.729 27.8796L161.746 27.8686L161.762 27.857L161.185 27.04ZM162.425 25.88L161.653 25.2443L161.653 25.2443L162.425 25.88ZM163.265 24.4L164.209 24.7303L164.27 24.5576L164.265 24.3747L163.265 24.4ZM163.185 21.24L163.407 20.2649L162.153 19.9799L162.186 21.2653L163.185 21.24ZM164.065 21.44L164.599 22.2855L166.636 20.9989L164.287 20.4649L164.065 21.44ZM162.385 22.2L162.676 23.1567L162.676 23.1567L162.385 22.2ZM160.505 22.64L160.341 21.6536L160.334 21.6548L160.505 22.64ZM158.665 23L158.844 23.9839L158.861 23.9808L158.878 23.9772L158.665 23ZM157.065 23.44L156.703 22.508L156.694 22.5116L156.685 22.5153L157.065 23.44ZM155.985 24.2L155.217 23.5598L155.217 23.5598L155.985 24.2ZM156.345 27.32L155.679 28.0652L155.679 28.0652L156.345 27.32ZM155.385 32.56V31.56C154.343 31.56 153.46 31.3593 152.713 30.9856L152.265 31.88L151.818 32.7744C152.884 33.3074 154.081 33.56 155.385 33.56V32.56ZM152.265 31.88L152.733 30.9962C151.991 30.6034 151.424 30.056 151.012 29.341L150.145 29.84L149.279 30.339C149.88 31.384 150.726 32.1966 151.797 32.7638L152.265 31.88ZM150.145 29.84L151.018 29.3522C150.612 28.6255 150.385 27.7085 150.385 26.56H149.385H148.385C148.385 27.9715 148.665 29.2412 149.272 30.3278L150.145 29.84ZM149.385 26.56H150.385C150.385 25.4796 150.59 24.6822 150.928 24.1057L150.065 23.6L149.203 23.0943C148.634 24.0644 148.385 25.2404 148.385 26.56H149.385ZM150.065 23.6L150.923 24.1145C151.301 23.4839 151.838 22.9825 152.563 22.609L152.105 21.72L151.647 20.831C150.612 21.3641 149.789 22.1161 149.208 23.0855L150.065 23.6ZM152.105 21.72L152.573 22.6038C153.388 22.1726 154.383 21.8122 155.573 21.5337L155.345 20.56L155.117 19.5863C153.801 19.8945 152.636 20.3074 151.637 20.8362L152.105 21.72ZM155.345 20.56L155.593 21.5289C156.806 21.219 158.199 20.9451 159.774 20.7089L159.625 19.72L159.477 18.7311C157.851 18.9749 156.391 19.261 155.098 19.5911L155.345 20.56ZM159.625 19.72L159.795 20.7055C160.575 20.571 161.228 20.4487 161.751 20.3385L161.545 19.36L161.339 18.3814C160.849 18.4847 160.222 18.6023 159.455 18.7345L159.625 19.72ZM161.545 19.36L161.788 20.3301C162.421 20.1717 163.012 19.9076 163.452 19.4671L162.745 18.76L162.038 18.0529C161.945 18.1457 161.736 18.2816 161.303 18.3899L161.545 19.36ZM162.745 18.76L163.452 19.4671C163.964 18.9556 164.145 18.278 164.145 17.6H163.145H162.145C162.145 17.9353 162.06 18.0311 162.038 18.0529L162.745 18.76ZM163.145 17.6H164.145C164.145 16.6627 163.796 15.8366 163.132 15.1729L162.425 15.88L161.718 16.5871C162.015 16.8834 162.145 17.2039 162.145 17.6H163.145ZM162.425 15.88L163.132 15.1729C162.382 14.4222 161.29 14.16 160.105 14.16V15.16V16.16C161.054 16.16 161.509 16.3778 161.718 16.5871L162.425 15.88ZM160.105 15.16V14.16C159.237 14.16 158.42 14.3155 157.667 14.6429L158.065 15.56L158.464 16.4771C158.938 16.2711 159.48 16.16 160.105 16.16V15.16ZM158.065 15.56L157.652 14.6496C156.926 14.9796 156.3 15.4587 155.78 16.0759L156.545 16.72L157.31 17.3641C157.644 16.9679 158.032 16.6738 158.479 16.4704L158.065 15.56ZM156.545 16.72L155.78 16.0759C155.254 16.7011 154.874 17.4414 154.627 18.2759L155.585 18.56L156.544 18.8441C156.724 18.2386 156.983 17.7522 157.31 17.3641L156.545 16.72ZM155.585 18.56L155.869 17.6011L150.189 15.9211L149.905 16.88L149.622 17.8389L155.302 19.5189L155.585 18.56ZM149.905 16.88L150.861 17.1757C151.178 16.1488 151.611 15.2801 152.148 14.5558L151.345 13.96L150.542 13.3642C149.853 14.2932 149.326 15.3712 148.95 16.5843L149.905 16.88ZM151.345 13.96L152.136 14.5722C152.702 13.841 153.37 13.2439 154.144 12.7752L153.625 11.92L153.107 11.0648C152.12 11.6628 151.268 12.4257 150.555 13.3478L151.345 13.96ZM153.625 11.92L154.162 12.7637C154.933 12.2734 155.82 11.9153 156.835 11.6978L156.625 10.72L156.416 9.7422C155.191 10.0047 154.078 10.4466 153.088 11.0763L153.625 11.92ZM156.625 10.72L156.852 11.694C157.918 11.446 159.055 11.32 160.265 11.32V10.32V9.32C158.916 9.32 157.626 9.46062 156.399 9.74599L156.625 10.72ZM160.265 10.32V11.32C162.301 11.32 163.86 11.6525 165.004 12.2472L165.465 11.36L165.927 10.4728C164.404 9.68086 162.496 9.32 160.265 9.32V10.32ZM165.465 11.36L165.025 12.2579C166.165 12.8169 167.003 13.6911 167.552 14.9261L168.465 14.52L169.379 14.1139C168.648 12.4689 167.485 11.2365 165.905 10.4621L165.465 11.36ZM168.465 14.52L167.561 14.9466C168.143 16.1817 168.465 17.8482 168.465 20H169.465H170.465C170.465 17.6718 170.121 15.685 169.37 14.0934L168.465 14.52ZM169.465 20H168.465V23.24H169.465H170.465V20H169.465ZM169.465 23.24H168.465C168.465 24.2093 168.479 25.1916 168.506 26.187L169.505 26.16L170.505 26.133C170.479 25.1551 170.465 24.1907 170.465 23.24H169.465ZM169.505 26.16L168.507 26.2155C168.56 27.175 168.613 28.1478 168.667 29.134L169.665 29.08L170.664 29.026C170.61 28.0389 170.557 27.065 170.504 26.1045L169.505 26.16ZM169.665 29.08L168.669 29.163C168.749 30.1314 168.844 31.1129 168.951 32.1075L169.945 32L170.94 31.8925C170.834 30.9137 170.741 29.9486 170.662 28.997L169.665 29.08ZM169.945 32V31H164.265V32V33H169.945V32ZM164.265 32L165.251 31.8287C165.147 31.2357 165.043 30.519 164.938 29.676L163.945 29.8L162.953 29.924C163.061 30.7877 163.17 31.5377 163.28 32.1713L164.265 32ZM163.945 29.8L164.938 29.6797C164.834 28.8206 164.756 27.9479 164.704 27.0613L163.705 27.12L162.707 27.1787C162.762 28.1055 162.843 29.0194 162.953 29.9203L163.945 29.8ZM163.705 27.12V26.12H162.945V27.12V28.12H163.705V27.12ZM162.945 27.12L162.007 26.7743C161.675 27.6749 161.189 28.5076 160.541 29.2751L161.305 29.92L162.07 30.5649C162.862 29.6257 163.469 28.5918 163.884 27.4657L162.945 27.12ZM161.305 29.92L160.539 29.2774C159.942 29.9893 159.206 30.5555 158.317 30.9763L158.745 31.88L159.173 32.7837C160.312 32.2445 161.282 31.504 162.072 30.5626L161.305 29.92ZM158.745 31.88L158.328 30.9713C157.491 31.3559 156.517 31.56 155.385 31.56V32.56V33.56C156.761 33.56 158.026 33.3108 159.163 32.7887L158.745 31.88ZM158.305 28V29C158.898 29 159.485 28.9008 160.062 28.7087L159.745 27.76L159.429 26.8113C159.046 26.9392 158.672 27 158.305 27V28ZM159.745 27.76L160.091 28.6983C160.667 28.4861 161.213 28.213 161.729 27.8796L161.185 27.04L160.642 26.2004C160.251 26.4536 159.837 26.6605 159.4 26.8217L159.745 27.76ZM161.185 27.04L161.762 27.857C162.292 27.4826 162.771 27.0339 163.197 26.5157L162.425 25.88L161.653 25.2443C161.333 25.6328 160.985 25.9574 160.609 26.223L161.185 27.04ZM162.425 25.88L163.197 26.5157C163.642 25.9751 163.982 25.3791 164.209 24.7303L163.265 24.4L162.321 24.0696C162.175 24.4875 161.955 24.8782 161.653 25.2443L162.425 25.88ZM163.265 24.4L164.265 24.3747L164.185 21.2147L163.185 21.24L162.186 21.2653L162.266 24.4253L163.265 24.4ZM163.185 21.24L162.964 22.2151L163.844 22.4151L164.065 21.44L164.287 20.4649L163.407 20.2649L163.185 21.24ZM164.065 21.44L163.531 20.5945C163.105 20.8635 162.628 21.0809 162.094 21.2433L162.385 22.2L162.676 23.1567C163.369 22.9458 164.012 22.6565 164.599 22.2855L164.065 21.44ZM162.385 22.2L162.094 21.2433C161.523 21.4172 160.939 21.554 160.341 21.6536L160.505 22.64L160.67 23.6264C161.352 23.5127 162.021 23.3561 162.676 23.1567L162.385 22.2ZM160.505 22.64L160.334 21.6548C159.707 21.7639 159.08 21.8865 158.453 22.0228L158.665 23L158.878 23.9772C159.478 23.8468 160.077 23.7295 160.677 23.6252L160.505 22.64ZM158.665 23L158.486 22.0161C157.847 22.1325 157.251 22.295 156.703 22.508L157.065 23.44L157.428 24.372C157.84 24.2117 158.311 24.0809 158.844 23.9839L158.665 23ZM157.065 23.44L156.685 22.5153C156.107 22.753 155.605 23.0945 155.217 23.5598L155.985 24.2L156.754 24.8402C156.899 24.6655 157.116 24.5004 157.446 24.3647L157.065 23.44ZM155.985 24.2L155.217 23.5598C154.756 24.1131 154.585 24.8069 154.585 25.52H155.585H156.585C156.585 25.1131 156.681 24.9269 156.754 24.8402L155.985 24.2ZM155.585 25.52H154.585C154.585 26.5199 154.938 27.4023 155.679 28.0652L156.345 27.32L157.012 26.5748C156.74 26.331 156.585 26.0135 156.585 25.52H155.585ZM156.345 27.32L155.679 28.0652C156.4 28.7109 157.305 29 158.305 29V28V27C157.705 27 157.304 26.8357 157.012 26.5748L156.345 27.32ZM177.373 31.24L176.802 32.0616L176.812 32.0682L176.822 32.0746L177.373 31.24ZM174.293 27.4L173.379 27.8061L173.381 27.8116L174.293 27.4ZM174.133 15.72L175.065 16.081L175.065 16.081L174.133 15.72ZM176.973 11.84L177.57 12.642L177.573 12.64L176.973 11.84ZM185.053 11.12L184.585 12.0038L184.595 12.0093L185.053 11.12ZM187.373 13.28L188.215 12.7416L188.215 12.7416L187.373 13.28ZM188.853 16.92L187.883 17.1667L188.075 17.92H188.853V16.92ZM189.853 16.92V17.92H191.079L190.832 16.7183L189.853 16.92ZM189.333 14.36L188.351 14.55L188.352 14.5561L189.333 14.36ZM188.933 12.08L187.939 12.1904L187.941 12.2113L187.944 12.2321L188.933 12.08ZM188.813 3.2V2.2H187.813V3.2H188.813ZM195.293 3.2H196.293V2.2H195.293V3.2ZM195.293 32V33H196.293V32H195.293ZM190.013 32L189.013 32.0128L189.025 33H190.013V32ZM189.933 25.76L190.932 25.7472L190.92 24.76H189.933V25.76ZM189.053 25.76V24.76H188.219L188.069 25.5797L189.053 25.76ZM187.653 29.68L186.807 29.146L186.803 29.1521L187.653 29.68ZM185.293 31.88L185.729 32.7796L185.74 32.7744L185.293 31.88ZM186.413 26.84L186.939 27.6903L186.949 27.6837L186.413 26.84ZM187.813 25.44L186.962 24.9136L186.962 24.9136L187.813 25.44ZM188.573 23.64L189.543 23.8825L189.543 23.8825L188.573 23.64ZM188.613 19.48L189.58 19.2255L189.58 19.2255L188.613 19.48ZM188.013 18L187.118 18.4472L187.128 18.4666L187.138 18.4856L188.013 18ZM185.773 15.84L185.366 16.7538L185.375 16.7578L185.384 16.7616L185.773 15.84ZM181.893 16.24L181.293 15.44L181.284 15.4462L181.276 15.4525L181.893 16.24ZM180.453 18.28L179.522 17.9135L179.517 17.9258L179.513 17.9383L180.453 18.28ZM180.493 24.56L179.558 24.9172L179.562 24.9265L180.493 24.56ZM182.013 26.64L181.407 27.4362L181.418 27.444L181.428 27.4515L182.013 26.64ZM182.013 32.56V31.56C180.428 31.56 179.077 31.1666 177.923 30.4054L177.373 31.24L176.822 32.0746C178.335 33.0734 180.077 33.56 182.013 33.56V32.56ZM177.373 31.24L177.943 30.4184C176.805 29.6289 175.887 28.5004 175.204 26.9884L174.293 27.4L173.381 27.8116C174.192 29.6063 175.327 31.0378 176.802 32.0616L177.373 31.24ZM174.293 27.4L175.206 26.9939C174.529 25.4705 174.173 23.6155 174.173 21.4H173.173H172.173C172.173 23.8245 172.562 25.9695 173.379 27.8061L174.293 27.4ZM173.173 21.4H174.173C174.173 19.3657 174.478 17.5984 175.065 16.081L174.133 15.72L173.2 15.359C172.507 17.1483 172.173 19.1677 172.173 21.4H173.173ZM174.133 15.72L175.065 16.081C175.646 14.5791 176.487 13.4483 177.57 12.642L176.973 11.84L176.375 11.038C174.951 12.0984 173.899 13.5543 173.2 15.359L174.133 15.72ZM176.973 11.84L177.573 12.64C178.652 11.8306 180.005 11.4 181.693 11.4V10.4V9.4C179.647 9.4 177.853 9.92939 176.373 11.04L176.973 11.84ZM181.693 10.4V11.4C182.91 11.4 183.859 11.6195 184.585 12.0038L185.053 11.12L185.52 10.2362C184.433 9.66046 183.142 9.4 181.693 9.4V10.4ZM185.053 11.12L184.595 12.0093C185.358 12.4016 186.003 12.9942 186.53 13.8184L187.373 13.28L188.215 12.7416C187.515 11.6458 186.614 10.7984 185.51 10.2307L185.053 11.12ZM187.373 13.28L186.53 13.8184C187.07 14.6645 187.528 15.7716 187.883 17.1667L188.853 16.92L189.822 16.6733C189.43 15.1351 188.901 13.8155 188.215 12.7416L187.373 13.28ZM188.853 16.92V17.92H189.853V16.92V15.92H188.853V16.92ZM189.853 16.92L190.832 16.7183C190.646 15.8133 190.473 14.9618 190.313 14.1639L189.333 14.36L188.352 14.5561C188.512 15.3582 188.686 16.2134 188.873 17.1217L189.853 16.92ZM189.333 14.36L190.314 14.17C190.156 13.3535 190.025 12.6064 189.921 11.9279L188.933 12.08L187.944 12.2321C188.053 12.9403 188.189 13.7131 188.351 14.55L189.333 14.36ZM188.933 12.08L189.926 11.9696C189.849 11.2742 189.813 10.6861 189.813 10.2H188.813H187.813C187.813 10.7806 187.856 11.4458 187.939 12.1904L188.933 12.08ZM188.813 10.2H189.813V3.2H188.813H187.813V10.2H188.813ZM188.813 3.2V4.2H195.293V3.2V2.2H188.813V3.2ZM195.293 3.2H194.293V21.68H195.293H196.293V3.2H195.293ZM195.293 21.68H194.293V32H195.293H196.293V21.68H195.293ZM195.293 32V31H190.013V32V33H195.293V32ZM190.013 32L191.012 31.9872L190.932 25.7472L189.933 25.76L188.933 25.7728L189.013 32.0128L190.013 32ZM189.933 25.76V24.76H189.053V25.76V26.76H189.933V25.76ZM189.053 25.76L188.069 25.5797C187.791 27.0961 187.359 28.2717 186.807 29.146L187.653 29.68L188.498 30.214C189.226 29.0616 189.727 27.6239 190.036 25.9403L189.053 25.76ZM187.653 29.68L186.803 29.1521C186.279 29.9952 185.626 30.595 184.845 30.9856L185.293 31.88L185.74 32.7744C186.879 32.205 187.799 31.3382 188.502 30.2079L187.653 29.68ZM185.293 31.88L184.856 30.9805C184.084 31.3554 183.145 31.56 182.013 31.56V32.56V33.56C183.386 33.56 184.635 33.3113 185.729 32.7795L185.293 31.88ZM184.333 27.36V28.36C185.298 28.36 186.185 28.157 186.939 27.6903L186.413 26.84L185.886 25.9897C185.52 26.2164 185.02 26.36 184.333 26.36V27.36ZM186.413 26.84L186.949 27.6837C187.656 27.2341 188.232 26.6615 188.663 25.9664L187.813 25.44L186.962 24.9136C186.699 25.3385 186.343 25.6992 185.876 25.9963L186.413 26.84ZM187.813 25.44L188.663 25.9664C189.064 25.3184 189.358 24.6226 189.543 23.8825L188.573 23.64L187.602 23.3975C187.467 23.9374 187.254 24.4416 186.962 24.9136L187.813 25.44ZM188.573 23.64L189.543 23.8825C189.719 23.1769 189.813 22.4947 189.813 21.84H188.813H187.813C187.813 22.3053 187.746 22.8231 187.602 23.3975L188.573 23.64ZM188.813 21.84H189.813V21H188.813H187.813V21.84H188.813ZM188.813 21H189.813C189.813 20.4046 189.734 19.8124 189.58 19.2255L188.613 19.48L187.645 19.7345C187.758 20.1609 187.813 20.5821 187.813 21H188.813ZM188.613 19.48L189.58 19.2255C189.424 18.6344 189.192 18.0637 188.887 17.5144L188.013 18L187.138 18.4856C187.366 18.8963 187.534 19.3122 187.645 19.7345L188.613 19.48ZM188.013 18L188.907 17.5528C188.62 16.9783 188.25 16.4635 187.8 16.0129L187.093 16.72L186.385 17.4271C186.681 17.7232 186.925 18.0617 187.118 18.4472L188.013 18ZM187.093 16.72L187.8 16.0129C187.331 15.5443 186.781 15.1798 186.161 14.9184L185.773 15.84L185.384 16.7616C185.777 16.9269 186.107 17.149 186.385 17.4271L187.093 16.72ZM185.773 15.84L186.179 14.9262C185.557 14.6497 184.883 14.52 184.173 14.52V15.52V16.52C184.636 16.52 185.028 16.6036 185.366 16.7538L185.773 15.84ZM184.173 15.52V14.52C183.099 14.52 182.123 14.8171 181.293 15.44L181.893 16.24L182.493 17.04C182.942 16.7029 183.486 16.52 184.173 16.52V15.52ZM181.893 16.24L181.276 15.4525C180.495 16.0637 179.92 16.9032 179.522 17.9135L180.453 18.28L181.383 18.6465C181.678 17.8968 182.063 17.3763 182.509 17.0275L181.893 16.24ZM180.453 18.28L179.513 17.9383C179.143 18.9537 178.973 20.1147 178.973 21.4H179.973H180.973C180.973 20.2853 181.122 19.3663 181.392 18.6217L180.453 18.28ZM179.973 21.4H178.973C178.973 22.6942 179.159 23.8731 179.558 24.9171L180.493 24.56L181.427 24.2029C181.132 23.4336 180.973 22.5058 180.973 21.4H179.973ZM180.493 24.56L179.562 24.9265C179.967 25.9542 180.577 26.8049 181.407 27.4362L182.013 26.64L182.618 25.8438C182.115 25.4617 181.711 24.9258 181.423 24.1935L180.493 24.56ZM182.013 26.64L181.428 27.4515C182.277 28.063 183.259 28.36 184.333 28.36V27.36V26.36C183.646 26.36 183.081 26.177 182.597 25.8285L182.013 26.64Z" fill="black" mask="url(#path-1-outside-1_151_131)"/>
</svg>
