<svg width="64" height="63" viewBox="0 0 64 63" fill="none" xmlns="http://www.w3.org/2000/svg">
<path d="M32 15.5776C36.1526 13.2259 40.6748 11.5742 45.3798 10.6908C46.44 10.4404 47.545 10.4364 48.607 10.6791C49.6692 10.9218 50.6594 11.4044 51.4996 12.0891C52.3399 12.7737 53.0071 13.6416 53.4484 14.6239C53.8897 15.6063 54.0929 16.6764 54.0425 17.7495V37.2966C53.9761 39.7229 53.0871 42.057 51.5168 43.927C49.9467 45.7968 47.7861 47.0948 45.3798 47.6132C40.6748 48.4967 36.1526 50.1485 32 52.5" fill="#E5DDFF"/>
<path d="M32 15.5776C36.1526 13.2259 40.6748 11.5742 45.3798 10.6908C46.44 10.4404 47.545 10.4364 48.607 10.6791C49.6692 10.9218 50.6594 11.4044 51.4996 12.0891C52.3399 12.7737 53.0071 13.6416 53.4484 14.6239C53.8897 15.6063 54.0929 16.6764 54.0425 17.7495V37.2966C53.9761 39.7229 53.0871 42.057 51.5168 43.927C49.9467 45.7968 47.7861 47.0948 45.3798 47.6132C40.6748 48.4967 36.1526 50.1485 32 52.5" stroke="black" stroke-width="2" stroke-linecap="round" stroke-linejoin="round"/>
<path d="M32.0002 15.5776C27.8476 13.2259 23.3256 11.5742 18.6206 10.6908C17.5603 10.4404 16.4554 10.4364 15.3933 10.6791C14.3312 10.9218 13.341 11.4044 12.5008 12.0891C11.6606 12.7737 10.9933 13.6416 10.552 14.6239C10.1107 15.6063 9.90722 16.6764 9.95775 17.7495V37.2966C10.0241 39.7229 10.9132 42.057 12.4834 43.927C14.0536 45.7968 16.2143 47.0948 18.6206 47.6132C23.3256 48.4967 27.8476 50.1485 32.0002 52.5" fill="#E5DDFF"/>
<path d="M32.0002 15.5776C27.8476 13.2259 23.3256 11.5742 18.6206 10.6908C17.5603 10.4404 16.4554 10.4364 15.3933 10.6791C14.3312 10.9218 13.341 11.4044 12.5008 12.0891C11.6606 12.7737 10.9933 13.6416 10.552 14.6239C10.1107 15.6063 9.90722 16.6764 9.95775 17.7495V37.2966C10.0241 39.7229 10.9132 42.057 12.4834 43.927C14.0536 45.7968 16.2143 47.0948 18.6206 47.6132C23.3256 48.4967 27.8476 50.1485 32.0002 52.5" stroke="black" stroke-width="2" stroke-linecap="round" stroke-linejoin="round"/>
<path d="M32 52.5L32 15.75" stroke="black" stroke-width="2" stroke-linecap="round" stroke-linejoin="round"/>
</svg>
