<svg width="60" height="60" viewBox="0 0 60 60" fill="none" xmlns="http://www.w3.org/2000/svg">
<path d="M48.5501 9.57498L30.6001 4.99999C30.4018 4.96387 30.1985 4.96387 30.0001 4.99999C29.8344 4.97497 29.6659 4.97497 29.5001 4.99999L11.4501 9.57498C10.3057 9.86068 9.29906 10.5418 8.60825 11.498C7.91745 12.4541 7.58693 13.6237 7.67514 14.8L8.72514 28.575C9.14566 34.0393 11.055 39.2841 14.2459 43.7399C17.4368 48.1956 21.7873 51.6922 26.8251 53.85L29.0251 54.8C29.3024 54.9155 29.5998 54.975 29.9001 54.975C30.2005 54.975 30.4979 54.9155 30.7751 54.8L32.9751 53.85C38.013 51.6922 42.3635 48.1956 45.5544 43.7399C48.7453 39.2841 50.6546 34.0393 51.0751 28.575L52.1251 14.8C52.2237 13.6503 51.9215 12.5019 51.2699 11.5496C50.6183 10.5973 49.6574 9.89963 48.5501 9.57498ZM39.2751 24.275L29.2751 34.275C29.0427 34.5093 28.7662 34.6953 28.4616 34.8222C28.1569 34.9491 27.8302 35.0145 27.5001 35.0145C27.1701 35.0145 26.8433 34.9491 26.5387 34.8222C26.234 34.6953 25.9575 34.5093 25.7251 34.275L20.7251 29.275C20.2544 28.8042 19.9899 28.1657 19.9899 27.5C19.9899 26.8342 20.2544 26.1957 20.7251 25.725C21.1959 25.2542 21.8344 24.9898 22.5001 24.9898C23.1659 24.9898 23.8044 25.2542 24.2751 25.725L27.5001 28.975L35.7251 20.725C36.1959 20.2542 36.8344 19.9898 37.5001 19.9898C38.1659 19.9898 38.8044 20.2542 39.2751 20.725C39.7459 21.1957 40.0104 21.8342 40.0104 22.5C40.0104 23.1657 39.7459 23.8042 39.2751 24.275Z" fill="white"/>
</svg>
